<svg width="78" height="24" viewBox="0 0 78 24" fill="none" xmlns="http://www.w3.org/2000/svg">
<path d="M8.87142 20.5014C7.76475 20.5014 6.73808 20.3214 5.79142 19.9614C4.85808 19.6014 4.04475 19.0947 3.35142 18.4414C2.67142 17.788 2.13808 17.0214 1.75142 16.1414C1.37808 15.2614 1.19142 14.3014 1.19142 13.2614C1.19142 12.2214 1.37808 11.2614 1.75142 10.3814C2.13808 9.50138 2.67808 8.73472 3.37142 8.08138C4.06475 7.42805 4.87808 6.92138 5.81142 6.56138C6.74475 6.20138 7.75808 6.02138 8.85142 6.02138C9.95808 6.02138 10.9714 6.20138 11.8914 6.56138C12.8247 6.92138 13.6314 7.42805 14.3114 8.08138C15.0047 8.73472 15.5447 9.50138 15.9314 10.3814C16.3181 11.248 16.5114 12.208 16.5114 13.2614C16.5114 14.3014 16.3181 15.268 15.9314 16.1614C15.5447 17.0414 15.0047 17.808 14.3114 18.4614C13.6314 19.1014 12.8247 19.6014 11.8914 19.9614C10.9714 20.3214 9.96475 20.5014 8.87142 20.5014ZM8.85142 17.7414C9.47808 17.7414 10.0514 17.6347 10.5714 17.4214C11.1047 17.208 11.5714 16.9014 11.9714 16.5014C12.3714 16.1014 12.6781 15.628 12.8914 15.0814C13.1181 14.5347 13.2314 13.928 13.2314 13.2614C13.2314 12.5947 13.1181 11.988 12.8914 11.4414C12.6781 10.8947 12.3714 10.4214 11.9714 10.0214C11.5847 9.62138 11.1247 9.31472 10.5914 9.10138C10.0581 8.88805 9.47808 8.78138 8.85142 8.78138C8.22475 8.78138 7.64475 8.88805 7.11142 9.10138C6.59142 9.31472 6.13142 9.62138 5.73142 10.0214C5.33142 10.4214 5.01808 10.8947 4.79142 11.4414C4.57808 11.988 4.47142 12.5947 4.47142 13.2614C4.47142 13.9147 4.57808 14.5214 4.79142 15.0814C5.01808 15.628 5.32475 16.1014 5.71142 16.5014C6.11142 16.9014 6.57808 17.208 7.11142 17.4214C7.64475 17.6347 8.22475 17.7414 8.85142 17.7414ZM17.9097 20.2614V18.1614L26.5697 7.72138L26.9697 8.90138H18.0697V6.26138H29.8497V8.36138L21.2097 18.8014L20.8097 17.6214H30.1497V20.2614H17.9097ZM38.8909 20.5014C37.7843 20.5014 36.7576 20.3214 35.8109 19.9614C34.8776 19.6014 34.0643 19.0947 33.3709 18.4414C32.6909 17.788 32.1576 17.0214 31.7709 16.1414C31.3976 15.2614 31.2109 14.3014 31.2109 13.2614C31.2109 12.2214 31.3976 11.2614 31.7709 10.3814C32.1576 9.50138 32.6976 8.73472 33.3909 8.08138C34.0843 7.42805 34.8976 6.92138 35.8309 6.56138C36.7643 6.20138 37.7776 6.02138 38.8709 6.02138C39.9776 6.02138 40.9909 6.20138 41.9109 6.56138C42.8443 6.92138 43.6509 7.42805 44.3309 8.08138C45.0243 8.73472 45.5643 9.50138 45.9509 10.3814C46.3376 11.248 46.5309 12.208 46.5309 13.2614C46.5309 14.3014 46.3376 15.268 45.9509 16.1614C45.5643 17.0414 45.0243 17.808 44.3309 18.4614C43.6509 19.1014 42.8443 19.6014 41.9109 19.9614C40.9909 20.3214 39.9843 20.5014 38.8909 20.5014ZM38.8709 17.7414C39.4976 17.7414 40.0709 17.6347 40.5909 17.4214C41.1243 17.208 41.5909 16.9014 41.9909 16.5014C42.3909 16.1014 42.6976 15.628 42.9109 15.0814C43.1376 14.5347 43.2509 13.928 43.2509 13.2614C43.2509 12.5947 43.1376 11.988 42.9109 11.4414C42.6976 10.8947 42.3909 10.4214 41.9909 10.0214C41.6043 9.62138 41.1443 9.31472 40.6109 9.10138C40.0776 8.88805 39.4976 8.78138 38.8709 8.78138C38.2443 8.78138 37.6643 8.88805 37.1309 9.10138C36.6109 9.31472 36.1509 9.62138 35.7509 10.0214C35.3509 10.4214 35.0376 10.8947 34.8109 11.4414C34.5976 11.988 34.4909 12.5947 34.4909 13.2614C34.4909 13.9147 34.5976 14.5214 34.8109 15.0814C35.0376 15.628 35.3443 16.1014 35.7309 16.5014C36.1309 16.9014 36.5976 17.208 37.1309 17.4214C37.6643 17.6347 38.2443 17.7414 38.8709 17.7414ZM48.9659 20.2614V6.26138H51.6459L59.9059 16.3414H58.6059V6.26138H61.8059V20.2614H59.1459L50.8659 10.1814H52.1659V20.2614H48.9659ZM68.0983 11.9014H74.8383V14.4214H68.0983V11.9014ZM68.3383 17.6614H75.9583V20.2614H65.1183V6.26138H75.6983V8.86138H68.3383V17.6614Z" fill="#092365"/>
<path d="M9.58376 19.24C8.47709 19.24 7.45042 19.06 6.50376 18.7C5.57042 18.34 4.75709 17.8333 4.06376 17.18C3.38376 16.5267 2.85042 15.76 2.46376 14.88C2.09042 14 1.90376 13.04 1.90376 12C1.90376 10.96 2.09042 10 2.46376 9.12C2.85042 8.24 3.39042 7.47333 4.08376 6.82C4.77709 6.16667 5.59042 5.66 6.52376 5.3C7.45709 4.94 8.47042 4.76 9.56376 4.76C10.6704 4.76 11.6838 4.94 12.6038 5.3C13.5371 5.66 14.3438 6.16667 15.0238 6.82C15.7171 7.47333 16.2571 8.24 16.6438 9.12C17.0304 9.98667 17.2238 10.9467 17.2238 12C17.2238 13.04 17.0304 14.0067 16.6438 14.9C16.2571 15.78 15.7171 16.5467 15.0238 17.2C14.3438 17.84 13.5371 18.34 12.6038 18.7C11.6838 19.06 10.6771 19.24 9.58376 19.24ZM9.56376 16.48C10.1904 16.48 10.7638 16.3733 11.2838 16.16C11.8171 15.9467 12.2838 15.64 12.6838 15.24C13.0838 14.84 13.3904 14.3667 13.6038 13.82C13.8304 13.2733 13.9438 12.6667 13.9438 12C13.9438 11.3333 13.8304 10.7267 13.6038 10.18C13.3904 9.63333 13.0838 9.16 12.6838 8.76C12.2971 8.36 11.8371 8.05333 11.3038 7.84C10.7704 7.62667 10.1904 7.52 9.56376 7.52C8.93709 7.52 8.35709 7.62667 7.82376 7.84C7.30376 8.05333 6.84376 8.36 6.44376 8.76C6.04376 9.16 5.73042 9.63333 5.50376 10.18C5.29042 10.7267 5.18376 11.3333 5.18376 12C5.18376 12.6533 5.29042 13.26 5.50376 13.82C5.73042 14.3667 6.03709 14.84 6.42376 15.24C6.82376 15.64 7.29042 15.9467 7.82376 16.16C8.35709 16.3733 8.93709 16.48 9.56376 16.48ZM18.622 19V16.9L27.282 6.46L27.682 7.64H18.782V5H30.562V7.1L21.922 17.54L21.522 16.36H30.862V19H18.622ZM39.6033 19.24C38.4966 19.24 37.47 19.06 36.5233 18.7C35.59 18.34 34.7766 17.8333 34.0833 17.18C33.4033 16.5267 32.87 15.76 32.4833 14.88C32.11 14 31.9233 13.04 31.9233 12C31.9233 10.96 32.11 10 32.4833 9.12C32.87 8.24 33.41 7.47333 34.1033 6.82C34.7966 6.16667 35.61 5.66 36.5433 5.3C37.4766 4.94 38.49 4.76 39.5833 4.76C40.69 4.76 41.7033 4.94 42.6233 5.3C43.5566 5.66 44.3633 6.16667 45.0433 6.82C45.7366 7.47333 46.2766 8.24 46.6633 9.12C47.05 9.98667 47.2433 10.9467 47.2433 12C47.2433 13.04 47.05 14.0067 46.6633 14.9C46.2766 15.78 45.7366 16.5467 45.0433 17.2C44.3633 17.84 43.5566 18.34 42.6233 18.7C41.7033 19.06 40.6966 19.24 39.6033 19.24ZM39.5833 16.48C40.21 16.48 40.7833 16.3733 41.3033 16.16C41.8366 15.9467 42.3033 15.64 42.7033 15.24C43.1033 14.84 43.41 14.3667 43.6233 13.82C43.85 13.2733 43.9633 12.6667 43.9633 12C43.9633 11.3333 43.85 10.7267 43.6233 10.18C43.41 9.63333 43.1033 9.16 42.7033 8.76C42.3166 8.36 41.8566 8.05333 41.3233 7.84C40.79 7.62667 40.21 7.52 39.5833 7.52C38.9566 7.52 38.3766 7.62667 37.8433 7.84C37.3233 8.05333 36.8633 8.36 36.4633 8.76C36.0633 9.16 35.75 9.63333 35.5233 10.18C35.31 10.7267 35.2033 11.3333 35.2033 12C35.2033 12.6533 35.31 13.26 35.5233 13.82C35.75 14.3667 36.0566 14.84 36.4433 15.24C36.8433 15.64 37.31 15.9467 37.8433 16.16C38.3766 16.3733 38.9566 16.48 39.5833 16.48ZM49.6783 19V5H52.3583L60.6183 15.08H59.3183V5H62.5183V19H59.8583L51.5783 8.92H52.8783V19H49.6783ZM68.8106 10.64H75.5506V13.16H68.8106V10.64ZM69.0506 16.4H76.6706V19H65.8306V5H76.4106V7.6H69.0506V16.4Z" fill="#1D58EF"/>
</svg>
