<svg width="224" height="25" viewBox="0 0 224 25" fill="none" xmlns="http://www.w3.org/2000/svg">
<path d="M9.67586 20.24C8.56919 20.24 7.54919 20.0667 6.61586 19.72C5.69586 19.36 4.88919 18.8533 4.19586 18.2C3.51586 17.5467 2.98253 16.78 2.59586 15.9C2.22253 15.02 2.03586 14.0533 2.03586 13C2.03586 11.9467 2.22253 10.98 2.59586 10.1C2.98253 9.22 3.52253 8.45333 4.21586 7.8C4.90919 7.14667 5.72253 6.64667 6.65586 6.3C7.58919 5.94 8.61586 5.76 9.73586 5.76C10.9759 5.76 12.0892 5.96667 13.0759 6.38C14.0759 6.79333 14.9159 7.39333 15.5959 8.18L13.5159 10.1C13.0092 9.56667 12.4559 9.17333 11.8559 8.92C11.2559 8.65333 10.6025 8.52 9.89586 8.52C9.21586 8.52 8.59586 8.62667 8.03586 8.84C7.47586 9.05333 6.98919 9.36 6.57586 9.76C6.17586 10.16 5.86253 10.6333 5.63586 11.18C5.42253 11.7267 5.31586 12.3333 5.31586 13C5.31586 13.6533 5.42253 14.2533 5.63586 14.8C5.86253 15.3467 6.17586 15.8267 6.57586 16.24C6.98919 16.64 7.46919 16.9467 8.01586 17.16C8.57586 17.3733 9.18919 17.48 9.85586 17.48C10.4959 17.48 11.1159 17.38 11.7159 17.18C12.3292 16.9667 12.9225 16.6133 13.4959 16.12L15.3359 18.46C14.5759 19.0333 13.6892 19.4733 12.6759 19.78C11.6759 20.0867 10.6759 20.24 9.67586 20.24ZM12.3759 18.04V12.78H15.3359V18.46L12.3759 18.04ZM24.7255 20V17.9L24.5255 17.44V13.68C24.5255 13.0133 24.3189 12.4933 23.9055 12.12C23.5055 11.7467 22.8855 11.56 22.0455 11.56C21.4722 11.56 20.9055 11.6533 20.3455 11.84C19.7989 12.0133 19.3322 12.2533 18.9455 12.56L17.8255 10.38C18.4122 9.96667 19.1189 9.64667 19.9455 9.42C20.7722 9.19333 21.6122 9.08 22.4655 9.08C24.1055 9.08 25.3789 9.46667 26.2855 10.24C27.1922 11.0133 27.6455 12.22 27.6455 13.86V20H24.7255ZM21.4455 20.16C20.6055 20.16 19.8855 20.02 19.2855 19.74C18.6855 19.4467 18.2255 19.0533 17.9055 18.56C17.5855 18.0667 17.4255 17.5133 17.4255 16.9C17.4255 16.26 17.5789 15.7 17.8855 15.22C18.2055 14.74 18.7055 14.3667 19.3855 14.1C20.0655 13.82 20.9522 13.68 22.0455 13.68H24.9055V15.5H22.3855C21.6522 15.5 21.1455 15.62 20.8655 15.86C20.5989 16.1 20.4655 16.4 20.4655 16.76C20.4655 17.16 20.6189 17.48 20.9255 17.72C21.2455 17.9467 21.6789 18.06 22.2255 18.06C22.7455 18.06 23.2122 17.94 23.6255 17.7C24.0389 17.4467 24.3389 17.08 24.5255 16.6L25.0055 18.04C24.7789 18.7333 24.3655 19.26 23.7655 19.62C23.1655 19.98 22.3922 20.16 21.4455 20.16ZM30.4693 20V5.16H33.5893V20H30.4693ZM36.4849 20V5.16H39.6049V20H36.4849ZM47.8405 20.16C46.6139 20.16 45.5339 19.92 44.6005 19.44C43.6805 18.96 42.9672 18.3067 42.4605 17.48C41.9539 16.64 41.7005 15.6867 41.7005 14.62C41.7005 13.54 41.9472 12.5867 42.4405 11.76C42.9472 10.92 43.6339 10.2667 44.5005 9.8C45.3672 9.32 46.3472 9.08 47.4405 9.08C48.4939 9.08 49.4405 9.30667 50.2805 9.76C51.1339 10.2 51.8072 10.84 52.3005 11.68C52.7939 12.5067 53.0405 13.5 53.0405 14.66C53.0405 14.78 53.0339 14.92 53.0205 15.08C53.0072 15.2267 52.9939 15.3667 52.9805 15.5H44.2405V13.68H51.3405L50.1405 14.22C50.1405 13.66 50.0272 13.1733 49.8005 12.76C49.5739 12.3467 49.2605 12.0267 48.8605 11.8C48.4605 11.56 47.9939 11.44 47.4605 11.44C46.9272 11.44 46.4539 11.56 46.0405 11.8C45.6405 12.0267 45.3272 12.3533 45.1005 12.78C44.8739 13.1933 44.7605 13.6867 44.7605 14.26V14.74C44.7605 15.3267 44.8872 15.8467 45.1405 16.3C45.4072 16.74 45.7739 17.08 46.2405 17.32C46.7205 17.5467 47.2805 17.66 47.9205 17.66C48.4939 17.66 48.9939 17.5733 49.4205 17.4C49.8605 17.2267 50.2605 16.9667 50.6205 16.62L52.2805 18.42C51.7872 18.98 51.1672 19.4133 50.4205 19.72C49.6739 20.0133 48.8139 20.16 47.8405 20.16ZM55.1177 20V9.24H58.0977V12.28L57.6777 11.4C57.9977 10.64 58.5111 10.0667 59.2177 9.68C59.9244 9.28 60.7844 9.08 61.7977 9.08V11.96C61.6644 11.9467 61.5444 11.94 61.4377 11.94C61.3311 11.9267 61.2177 11.92 61.0977 11.92C60.2444 11.92 59.5511 12.1667 59.0177 12.66C58.4977 13.14 58.2377 13.8933 58.2377 14.92V20H55.1177ZM65.384 24.04C64.824 24.04 64.2707 23.9533 63.724 23.78C63.1773 23.6067 62.7307 23.3667 62.384 23.06L63.524 20.84C63.764 21.0533 64.0373 21.22 64.344 21.34C64.664 21.46 64.9773 21.52 65.284 21.52C65.724 21.52 66.0707 21.4133 66.324 21.2C66.5907 21 66.8307 20.66 67.044 20.18L67.604 18.86L67.844 18.52L71.704 9.24H74.704L69.844 20.66C69.4973 21.5267 69.0973 22.2067 68.644 22.7C68.204 23.1933 67.7107 23.54 67.164 23.74C66.6307 23.94 66.0373 24.04 65.384 24.04ZM67.224 20.42L62.424 9.24H65.644L69.364 18.24L67.224 20.42ZM81.8612 20V6H88.2212C89.7412 6 91.0812 6.29333 92.2412 6.88C93.4012 7.45333 94.3078 8.26 94.9612 9.3C95.6145 10.34 95.9412 11.5733 95.9412 13C95.9412 14.4133 95.6145 15.6467 94.9612 16.7C94.3078 17.74 93.4012 18.5533 92.2412 19.14C91.0812 19.7133 89.7412 20 88.2212 20H81.8612ZM85.1012 17.34H88.0612C88.9945 17.34 89.8012 17.1667 90.4812 16.82C91.1745 16.46 91.7078 15.9533 92.0812 15.3C92.4678 14.6467 92.6612 13.88 92.6612 13C92.6612 12.1067 92.4678 11.34 92.0812 10.7C91.7078 10.0467 91.1745 9.54667 90.4812 9.2C89.8012 8.84 88.9945 8.66 88.0612 8.66H85.1012V17.34ZM103.285 20.16C102.138 20.16 101.118 19.92 100.225 19.44C99.3446 18.96 98.6446 18.3067 98.1246 17.48C97.6179 16.64 97.3646 15.6867 97.3646 14.62C97.3646 13.54 97.6179 12.5867 98.1246 11.76C98.6446 10.92 99.3446 10.2667 100.225 9.8C101.118 9.32 102.138 9.08 103.285 9.08C104.418 9.08 105.431 9.32 106.325 9.8C107.218 10.2667 107.918 10.9133 108.425 11.74C108.931 12.5667 109.185 13.5267 109.185 14.62C109.185 15.6867 108.931 16.64 108.425 17.48C107.918 18.3067 107.218 18.96 106.325 19.44C105.431 19.92 104.418 20.16 103.285 20.16ZM103.285 17.6C103.805 17.6 104.271 17.48 104.685 17.24C105.098 17 105.425 16.66 105.665 16.22C105.905 15.7667 106.025 15.2333 106.025 14.62C106.025 13.9933 105.905 13.46 105.665 13.02C105.425 12.58 105.098 12.24 104.685 12C104.271 11.76 103.805 11.64 103.285 11.64C102.765 11.64 102.298 11.76 101.885 12C101.471 12.24 101.138 12.58 100.885 13.02C100.645 13.46 100.525 13.9933 100.525 14.62C100.525 15.2333 100.645 15.7667 100.885 16.22C101.138 16.66 101.471 17 101.885 17.24C102.298 17.48 102.765 17.6 103.285 17.6ZM113.85 17.8L113.93 14L118.95 9.24H122.67L117.85 14.14L116.23 15.46L113.85 17.8ZM111.27 20V5.16H114.39V20H111.27ZM119.29 20L115.65 15.48L117.61 13.06L123.07 20H119.29ZM128.818 20.16C127.925 20.16 127.125 19.9867 126.418 19.64C125.725 19.2933 125.185 18.7667 124.798 18.06C124.411 17.34 124.218 16.4267 124.218 15.32V9.24H127.338V14.86C127.338 15.7533 127.525 16.4133 127.898 16.84C128.285 17.2533 128.825 17.46 129.518 17.46C129.998 17.46 130.425 17.36 130.798 17.16C131.171 16.9467 131.465 16.6267 131.678 16.2C131.891 15.76 131.998 15.2133 131.998 14.56V9.24H135.118V20H132.158V17.04L132.698 17.9C132.338 18.6467 131.805 19.2133 131.098 19.6C130.405 19.9733 129.645 20.16 128.818 20.16ZM151.788 9.08C152.642 9.08 153.395 9.25333 154.048 9.6C154.715 9.93333 155.235 10.4533 155.608 11.16C155.995 11.8533 156.188 12.7467 156.188 13.84V20H153.068V14.32C153.068 13.4533 152.888 12.8133 152.528 12.4C152.168 11.9867 151.662 11.78 151.008 11.78C150.555 11.78 150.148 11.8867 149.788 12.1C149.428 12.3 149.148 12.6067 148.948 13.02C148.748 13.4333 148.648 13.96 148.648 14.6V20H145.528V14.32C145.528 13.4533 145.348 12.8133 144.988 12.4C144.642 11.9867 144.142 11.78 143.488 11.78C143.035 11.78 142.628 11.8867 142.268 12.1C141.908 12.3 141.628 12.6067 141.428 13.02C141.228 13.4333 141.128 13.96 141.128 14.6V20H138.008V9.24H140.988V12.18L140.428 11.32C140.802 10.5867 141.328 10.0333 142.008 9.66C142.702 9.27333 143.488 9.08 144.368 9.08C145.355 9.08 146.215 9.33333 146.948 9.84C147.695 10.3333 148.188 11.0933 148.428 12.12L147.328 11.82C147.688 10.98 148.262 10.3133 149.048 9.82C149.848 9.32667 150.762 9.08 151.788 9.08ZM164.403 20.16C163.176 20.16 162.096 19.92 161.163 19.44C160.243 18.96 159.53 18.3067 159.023 17.48C158.516 16.64 158.263 15.6867 158.263 14.62C158.263 13.54 158.51 12.5867 159.003 11.76C159.51 10.92 160.196 10.2667 161.063 9.8C161.93 9.32 162.91 9.08 164.003 9.08C165.056 9.08 166.003 9.30667 166.843 9.76C167.696 10.2 168.37 10.84 168.863 11.68C169.356 12.5067 169.603 13.5 169.603 14.66C169.603 14.78 169.596 14.92 169.583 15.08C169.57 15.2267 169.556 15.3667 169.543 15.5H160.803V13.68H167.903L166.703 14.22C166.703 13.66 166.59 13.1733 166.363 12.76C166.136 12.3467 165.823 12.0267 165.423 11.8C165.023 11.56 164.556 11.44 164.023 11.44C163.49 11.44 163.016 11.56 162.603 11.8C162.203 12.0267 161.89 12.3533 161.663 12.78C161.436 13.1933 161.323 13.6867 161.323 14.26V14.74C161.323 15.3267 161.45 15.8467 161.703 16.3C161.97 16.74 162.336 17.08 162.803 17.32C163.283 17.5467 163.843 17.66 164.483 17.66C165.056 17.66 165.556 17.5733 165.983 17.4C166.423 17.2267 166.823 16.9667 167.183 16.62L168.843 18.42C168.35 18.98 167.73 19.4133 166.983 19.72C166.236 20.0133 165.376 20.16 164.403 20.16ZM178.22 9.08C179.074 9.08 179.834 9.25333 180.5 9.6C181.18 9.93333 181.714 10.4533 182.1 11.16C182.487 11.8533 182.68 12.7467 182.68 13.84V20H179.56V14.32C179.56 13.4533 179.367 12.8133 178.98 12.4C178.607 11.9867 178.074 11.78 177.38 11.78C176.887 11.78 176.44 11.8867 176.04 12.1C175.654 12.3 175.347 12.6133 175.12 13.04C174.907 13.4667 174.8 14.0133 174.8 14.68V20H171.68V9.24H174.66V12.22L174.1 11.32C174.487 10.6 175.04 10.0467 175.76 9.66C176.48 9.27333 177.3 9.08 178.22 9.08ZM189.908 20.16C188.642 20.16 187.655 19.84 186.948 19.2C186.242 18.5467 185.888 17.58 185.888 16.3V6.86H189.008V16.26C189.008 16.7133 189.128 17.0667 189.368 17.32C189.608 17.56 189.935 17.68 190.348 17.68C190.842 17.68 191.262 17.5467 191.608 17.28L192.448 19.48C192.128 19.7067 191.742 19.88 191.288 20C190.848 20.1067 190.388 20.16 189.908 20.16ZM184.228 11.88V9.48H191.688V11.88H184.228ZM200.8 20V17.9L200.6 17.44V13.68C200.6 13.0133 200.393 12.4933 199.98 12.12C199.58 11.7467 198.96 11.56 198.12 11.56C197.546 11.56 196.98 11.6533 196.42 11.84C195.873 12.0133 195.406 12.2533 195.02 12.56L193.9 10.38C194.486 9.96667 195.193 9.64667 196.02 9.42C196.846 9.19333 197.686 9.08 198.54 9.08C200.18 9.08 201.453 9.46667 202.36 10.24C203.266 11.0133 203.72 12.22 203.72 13.86V20H200.8ZM197.52 20.16C196.68 20.16 195.96 20.02 195.36 19.74C194.76 19.4467 194.3 19.0533 193.98 18.56C193.66 18.0667 193.5 17.5133 193.5 16.9C193.5 16.26 193.653 15.7 193.96 15.22C194.28 14.74 194.78 14.3667 195.46 14.1C196.14 13.82 197.026 13.68 198.12 13.68H200.98V15.5H198.46C197.726 15.5 197.22 15.62 196.94 15.86C196.673 16.1 196.54 16.4 196.54 16.76C196.54 17.16 196.693 17.48 197 17.72C197.32 17.9467 197.753 18.06 198.3 18.06C198.82 18.06 199.286 17.94 199.7 17.7C200.113 17.4467 200.413 17.08 200.6 16.6L201.08 18.04C200.853 18.7333 200.44 19.26 199.84 19.62C199.24 19.98 198.466 20.16 197.52 20.16ZM210.164 20.16C209.244 20.16 208.357 20.0533 207.504 19.84C206.664 19.6133 205.997 19.3333 205.504 19L206.544 16.76C207.037 17.0667 207.617 17.32 208.284 17.52C208.964 17.7067 209.63 17.8 210.284 17.8C211.004 17.8 211.51 17.7133 211.804 17.54C212.11 17.3667 212.264 17.1267 212.264 16.82C212.264 16.5667 212.144 16.38 211.904 16.26C211.677 16.1267 211.37 16.0267 210.984 15.96C210.597 15.8933 210.17 15.8267 209.704 15.76C209.25 15.6933 208.79 15.6067 208.324 15.5C207.857 15.38 207.43 15.2067 207.044 14.98C206.657 14.7533 206.344 14.4467 206.104 14.06C205.877 13.6733 205.764 13.1733 205.764 12.56C205.764 11.88 205.957 11.28 206.344 10.76C206.744 10.24 207.317 9.83333 208.064 9.54C208.81 9.23333 209.704 9.08 210.744 9.08C211.477 9.08 212.224 9.16 212.984 9.32C213.744 9.48 214.377 9.71333 214.884 10.02L213.844 12.24C213.324 11.9333 212.797 11.7267 212.264 11.62C211.744 11.5 211.237 11.44 210.744 11.44C210.05 11.44 209.544 11.5333 209.224 11.72C208.904 11.9067 208.744 12.1467 208.744 12.44C208.744 12.7067 208.857 12.9067 209.084 13.04C209.324 13.1733 209.637 13.28 210.024 13.36C210.41 13.44 210.83 13.5133 211.284 13.58C211.75 13.6333 212.217 13.72 212.684 13.84C213.15 13.96 213.57 14.1333 213.944 14.36C214.33 14.5733 214.644 14.8733 214.884 15.26C215.124 15.6333 215.244 16.1267 215.244 16.74C215.244 17.4067 215.044 18 214.644 18.52C214.244 19.0267 213.664 19.4267 212.904 19.72C212.157 20.0133 211.244 20.16 210.164 20.16ZM217.169 20V9.24H220.289V20H217.169ZM218.729 7.74C218.155 7.74 217.689 7.57333 217.329 7.24C216.969 6.90667 216.789 6.49333 216.789 6C216.789 5.50667 216.969 5.09333 217.329 4.76C217.689 4.42667 218.155 4.26 218.729 4.26C219.302 4.26 219.769 4.42 220.129 4.74C220.489 5.04667 220.669 5.44667 220.669 5.94C220.669 6.46 220.489 6.89333 220.129 7.24C219.782 7.57333 219.315 7.74 218.729 7.74Z" fill="#092365"/>
<path d="M10.6759 19.24C9.56919 19.24 8.54919 19.0667 7.61586 18.72C6.69586 18.36 5.88919 17.8533 5.19586 17.2C4.51586 16.5467 3.98253 15.78 3.59586 14.9C3.22253 14.02 3.03586 13.0533 3.03586 12C3.03586 10.9467 3.22253 9.98 3.59586 9.1C3.98253 8.22 4.52253 7.45333 5.21586 6.8C5.90919 6.14667 6.72253 5.64667 7.65586 5.3C8.58919 4.94 9.61586 4.76 10.7359 4.76C11.9759 4.76 13.0892 4.96667 14.0759 5.38C15.0759 5.79333 15.9159 6.39333 16.5959 7.18L14.5159 9.1C14.0092 8.56667 13.4559 8.17333 12.8559 7.92C12.2559 7.65333 11.6025 7.52 10.8959 7.52C10.2159 7.52 9.59586 7.62667 9.03586 7.84C8.47586 8.05333 7.98919 8.36 7.57586 8.76C7.17586 9.16 6.86253 9.63333 6.63586 10.18C6.42253 10.7267 6.31586 11.3333 6.31586 12C6.31586 12.6533 6.42253 13.2533 6.63586 13.8C6.86253 14.3467 7.17586 14.8267 7.57586 15.24C7.98919 15.64 8.46919 15.9467 9.01586 16.16C9.57586 16.3733 10.1892 16.48 10.8559 16.48C11.4959 16.48 12.1159 16.38 12.7159 16.18C13.3292 15.9667 13.9225 15.6133 14.4959 15.12L16.3359 17.46C15.5759 18.0333 14.6892 18.4733 13.6759 18.78C12.6759 19.0867 11.6759 19.24 10.6759 19.24ZM13.3759 17.04V11.78H16.3359V17.46L13.3759 17.04ZM25.7255 19V16.9L25.5255 16.44V12.68C25.5255 12.0133 25.3189 11.4933 24.9055 11.12C24.5055 10.7467 23.8855 10.56 23.0455 10.56C22.4722 10.56 21.9055 10.6533 21.3455 10.84C20.7989 11.0133 20.3322 11.2533 19.9455 11.56L18.8255 9.38C19.4122 8.96667 20.1189 8.64667 20.9455 8.42C21.7722 8.19333 22.6122 8.08 23.4655 8.08C25.1055 8.08 26.3789 8.46667 27.2855 9.24C28.1922 10.0133 28.6455 11.22 28.6455 12.86V19H25.7255ZM22.4455 19.16C21.6055 19.16 20.8855 19.02 20.2855 18.74C19.6855 18.4467 19.2255 18.0533 18.9055 17.56C18.5855 17.0667 18.4255 16.5133 18.4255 15.9C18.4255 15.26 18.5789 14.7 18.8855 14.22C19.2055 13.74 19.7055 13.3667 20.3855 13.1C21.0655 12.82 21.9522 12.68 23.0455 12.68H25.9055V14.5H23.3855C22.6522 14.5 22.1455 14.62 21.8655 14.86C21.5989 15.1 21.4655 15.4 21.4655 15.76C21.4655 16.16 21.6189 16.48 21.9255 16.72C22.2455 16.9467 22.6789 17.06 23.2255 17.06C23.7455 17.06 24.2122 16.94 24.6255 16.7C25.0389 16.4467 25.3389 16.08 25.5255 15.6L26.0055 17.04C25.7789 17.7333 25.3655 18.26 24.7655 18.62C24.1655 18.98 23.3922 19.16 22.4455 19.16ZM31.4693 19V4.16H34.5893V19H31.4693ZM37.4849 19V4.16H40.6049V19H37.4849ZM48.8405 19.16C47.6139 19.16 46.5339 18.92 45.6005 18.44C44.6805 17.96 43.9672 17.3067 43.4605 16.48C42.9539 15.64 42.7005 14.6867 42.7005 13.62C42.7005 12.54 42.9472 11.5867 43.4405 10.76C43.9472 9.92 44.6339 9.26667 45.5005 8.8C46.3672 8.32 47.3472 8.08 48.4405 8.08C49.4939 8.08 50.4405 8.30667 51.2805 8.76C52.1339 9.2 52.8072 9.84 53.3005 10.68C53.7939 11.5067 54.0405 12.5 54.0405 13.66C54.0405 13.78 54.0339 13.92 54.0205 14.08C54.0072 14.2267 53.9939 14.3667 53.9805 14.5H45.2405V12.68H52.3405L51.1405 13.22C51.1405 12.66 51.0272 12.1733 50.8005 11.76C50.5739 11.3467 50.2605 11.0267 49.8605 10.8C49.4605 10.56 48.9939 10.44 48.4605 10.44C47.9272 10.44 47.4539 10.56 47.0405 10.8C46.6405 11.0267 46.3272 11.3533 46.1005 11.78C45.8739 12.1933 45.7605 12.6867 45.7605 13.26V13.74C45.7605 14.3267 45.8872 14.8467 46.1405 15.3C46.4072 15.74 46.7739 16.08 47.2405 16.32C47.7205 16.5467 48.2805 16.66 48.9205 16.66C49.4939 16.66 49.9939 16.5733 50.4205 16.4C50.8605 16.2267 51.2605 15.9667 51.6205 15.62L53.2805 17.42C52.7872 17.98 52.1672 18.4133 51.4205 18.72C50.6739 19.0133 49.8139 19.16 48.8405 19.16ZM56.1177 19V8.24H59.0977V11.28L58.6777 10.4C58.9977 9.64 59.5111 9.06667 60.2177 8.68C60.9244 8.28 61.7844 8.08 62.7977 8.08V10.96C62.6644 10.9467 62.5444 10.94 62.4377 10.94C62.3311 10.9267 62.2177 10.92 62.0977 10.92C61.2444 10.92 60.5511 11.1667 60.0177 11.66C59.4977 12.14 59.2377 12.8933 59.2377 13.92V19H56.1177ZM66.384 23.04C65.824 23.04 65.2707 22.9533 64.724 22.78C64.1773 22.6067 63.7307 22.3667 63.384 22.06L64.524 19.84C64.764 20.0533 65.0373 20.22 65.344 20.34C65.664 20.46 65.9773 20.52 66.284 20.52C66.724 20.52 67.0707 20.4133 67.324 20.2C67.5907 20 67.8307 19.66 68.044 19.18L68.604 17.86L68.844 17.52L72.704 8.24H75.704L70.844 19.66C70.4973 20.5267 70.0973 21.2067 69.644 21.7C69.204 22.1933 68.7107 22.54 68.164 22.74C67.6307 22.94 67.0373 23.04 66.384 23.04ZM68.224 19.42L63.424 8.24H66.644L70.364 17.24L68.224 19.42ZM82.8612 19V5H89.2212C90.7412 5 92.0812 5.29333 93.2412 5.88C94.4012 6.45333 95.3078 7.26 95.9612 8.3C96.6145 9.34 96.9412 10.5733 96.9412 12C96.9412 13.4133 96.6145 14.6467 95.9612 15.7C95.3078 16.74 94.4012 17.5533 93.2412 18.14C92.0812 18.7133 90.7412 19 89.2212 19H82.8612ZM86.1012 16.34H89.0612C89.9945 16.34 90.8012 16.1667 91.4812 15.82C92.1745 15.46 92.7078 14.9533 93.0812 14.3C93.4678 13.6467 93.6612 12.88 93.6612 12C93.6612 11.1067 93.4678 10.34 93.0812 9.7C92.7078 9.04667 92.1745 8.54667 91.4812 8.2C90.8012 7.84 89.9945 7.66 89.0612 7.66H86.1012V16.34ZM104.285 19.16C103.138 19.16 102.118 18.92 101.225 18.44C100.345 17.96 99.6446 17.3067 99.1246 16.48C98.6179 15.64 98.3646 14.6867 98.3646 13.62C98.3646 12.54 98.6179 11.5867 99.1246 10.76C99.6446 9.92 100.345 9.26667 101.225 8.8C102.118 8.32 103.138 8.08 104.285 8.08C105.418 8.08 106.431 8.32 107.325 8.8C108.218 9.26667 108.918 9.91333 109.425 10.74C109.931 11.5667 110.185 12.5267 110.185 13.62C110.185 14.6867 109.931 15.64 109.425 16.48C108.918 17.3067 108.218 17.96 107.325 18.44C106.431 18.92 105.418 19.16 104.285 19.16ZM104.285 16.6C104.805 16.6 105.271 16.48 105.685 16.24C106.098 16 106.425 15.66 106.665 15.22C106.905 14.7667 107.025 14.2333 107.025 13.62C107.025 12.9933 106.905 12.46 106.665 12.02C106.425 11.58 106.098 11.24 105.685 11C105.271 10.76 104.805 10.64 104.285 10.64C103.765 10.64 103.298 10.76 102.885 11C102.471 11.24 102.138 11.58 101.885 12.02C101.645 12.46 101.525 12.9933 101.525 13.62C101.525 14.2333 101.645 14.7667 101.885 15.22C102.138 15.66 102.471 16 102.885 16.24C103.298 16.48 103.765 16.6 104.285 16.6ZM114.85 16.8L114.93 13L119.95 8.24H123.67L118.85 13.14L117.23 14.46L114.85 16.8ZM112.27 19V4.16H115.39V19H112.27ZM120.29 19L116.65 14.48L118.61 12.06L124.07 19H120.29ZM129.818 19.16C128.925 19.16 128.125 18.9867 127.418 18.64C126.725 18.2933 126.185 17.7667 125.798 17.06C125.411 16.34 125.218 15.4267 125.218 14.32V8.24H128.338V13.86C128.338 14.7533 128.525 15.4133 128.898 15.84C129.285 16.2533 129.825 16.46 130.518 16.46C130.998 16.46 131.425 16.36 131.798 16.16C132.171 15.9467 132.465 15.6267 132.678 15.2C132.891 14.76 132.998 14.2133 132.998 13.56V8.24H136.118V19H133.158V16.04L133.698 16.9C133.338 17.6467 132.805 18.2133 132.098 18.6C131.405 18.9733 130.645 19.16 129.818 19.16ZM152.788 8.08C153.642 8.08 154.395 8.25333 155.048 8.6C155.715 8.93333 156.235 9.45333 156.608 10.16C156.995 10.8533 157.188 11.7467 157.188 12.84V19H154.068V13.32C154.068 12.4533 153.888 11.8133 153.528 11.4C153.168 10.9867 152.662 10.78 152.008 10.78C151.555 10.78 151.148 10.8867 150.788 11.1C150.428 11.3 150.148 11.6067 149.948 12.02C149.748 12.4333 149.648 12.96 149.648 13.6V19H146.528V13.32C146.528 12.4533 146.348 11.8133 145.988 11.4C145.642 10.9867 145.142 10.78 144.488 10.78C144.035 10.78 143.628 10.8867 143.268 11.1C142.908 11.3 142.628 11.6067 142.428 12.02C142.228 12.4333 142.128 12.96 142.128 13.6V19H139.008V8.24H141.988V11.18L141.428 10.32C141.802 9.58667 142.328 9.03333 143.008 8.66C143.702 8.27333 144.488 8.08 145.368 8.08C146.355 8.08 147.215 8.33333 147.948 8.84C148.695 9.33333 149.188 10.0933 149.428 11.12L148.328 10.82C148.688 9.98 149.262 9.31333 150.048 8.82C150.848 8.32667 151.762 8.08 152.788 8.08ZM165.403 19.16C164.176 19.16 163.096 18.92 162.163 18.44C161.243 17.96 160.53 17.3067 160.023 16.48C159.516 15.64 159.263 14.6867 159.263 13.62C159.263 12.54 159.51 11.5867 160.003 10.76C160.51 9.92 161.196 9.26667 162.063 8.8C162.93 8.32 163.91 8.08 165.003 8.08C166.056 8.08 167.003 8.30667 167.843 8.76C168.696 9.2 169.37 9.84 169.863 10.68C170.356 11.5067 170.603 12.5 170.603 13.66C170.603 13.78 170.596 13.92 170.583 14.08C170.57 14.2267 170.556 14.3667 170.543 14.5H161.803V12.68H168.903L167.703 13.22C167.703 12.66 167.59 12.1733 167.363 11.76C167.136 11.3467 166.823 11.0267 166.423 10.8C166.023 10.56 165.556 10.44 165.023 10.44C164.49 10.44 164.016 10.56 163.603 10.8C163.203 11.0267 162.89 11.3533 162.663 11.78C162.436 12.1933 162.323 12.6867 162.323 13.26V13.74C162.323 14.3267 162.45 14.8467 162.703 15.3C162.97 15.74 163.336 16.08 163.803 16.32C164.283 16.5467 164.843 16.66 165.483 16.66C166.056 16.66 166.556 16.5733 166.983 16.4C167.423 16.2267 167.823 15.9667 168.183 15.62L169.843 17.42C169.35 17.98 168.73 18.4133 167.983 18.72C167.236 19.0133 166.376 19.16 165.403 19.16ZM179.22 8.08C180.074 8.08 180.834 8.25333 181.5 8.6C182.18 8.93333 182.714 9.45333 183.1 10.16C183.487 10.8533 183.68 11.7467 183.68 12.84V19H180.56V13.32C180.56 12.4533 180.367 11.8133 179.98 11.4C179.607 10.9867 179.074 10.78 178.38 10.78C177.887 10.78 177.44 10.8867 177.04 11.1C176.654 11.3 176.347 11.6133 176.12 12.04C175.907 12.4667 175.8 13.0133 175.8 13.68V19H172.68V8.24H175.66V11.22L175.1 10.32C175.487 9.6 176.04 9.04667 176.76 8.66C177.48 8.27333 178.3 8.08 179.22 8.08ZM190.908 19.16C189.642 19.16 188.655 18.84 187.948 18.2C187.242 17.5467 186.888 16.58 186.888 15.3V5.86H190.008V15.26C190.008 15.7133 190.128 16.0667 190.368 16.32C190.608 16.56 190.935 16.68 191.348 16.68C191.842 16.68 192.262 16.5467 192.608 16.28L193.448 18.48C193.128 18.7067 192.742 18.88 192.288 19C191.848 19.1067 191.388 19.16 190.908 19.16ZM185.228 10.88V8.48H192.688V10.88H185.228ZM201.8 19V16.9L201.6 16.44V12.68C201.6 12.0133 201.393 11.4933 200.98 11.12C200.58 10.7467 199.96 10.56 199.12 10.56C198.546 10.56 197.98 10.6533 197.42 10.84C196.873 11.0133 196.406 11.2533 196.02 11.56L194.9 9.38C195.486 8.96667 196.193 8.64667 197.02 8.42C197.846 8.19333 198.686 8.08 199.54 8.08C201.18 8.08 202.453 8.46667 203.36 9.24C204.266 10.0133 204.72 11.22 204.72 12.86V19H201.8ZM198.52 19.16C197.68 19.16 196.96 19.02 196.36 18.74C195.76 18.4467 195.3 18.0533 194.98 17.56C194.66 17.0667 194.5 16.5133 194.5 15.9C194.5 15.26 194.653 14.7 194.96 14.22C195.28 13.74 195.78 13.3667 196.46 13.1C197.14 12.82 198.026 12.68 199.12 12.68H201.98V14.5H199.46C198.726 14.5 198.22 14.62 197.94 14.86C197.673 15.1 197.54 15.4 197.54 15.76C197.54 16.16 197.693 16.48 198 16.72C198.32 16.9467 198.753 17.06 199.3 17.06C199.82 17.06 200.286 16.94 200.7 16.7C201.113 16.4467 201.413 16.08 201.6 15.6L202.08 17.04C201.853 17.7333 201.44 18.26 200.84 18.62C200.24 18.98 199.466 19.16 198.52 19.16ZM211.164 19.16C210.244 19.16 209.357 19.0533 208.504 18.84C207.664 18.6133 206.997 18.3333 206.504 18L207.544 15.76C208.037 16.0667 208.617 16.32 209.284 16.52C209.964 16.7067 210.63 16.8 211.284 16.8C212.004 16.8 212.51 16.7133 212.804 16.54C213.11 16.3667 213.264 16.1267 213.264 15.82C213.264 15.5667 213.144 15.38 212.904 15.26C212.677 15.1267 212.37 15.0267 211.984 14.96C211.597 14.8933 211.17 14.8267 210.704 14.76C210.25 14.6933 209.79 14.6067 209.324 14.5C208.857 14.38 208.43 14.2067 208.044 13.98C207.657 13.7533 207.344 13.4467 207.104 13.06C206.877 12.6733 206.764 12.1733 206.764 11.56C206.764 10.88 206.957 10.28 207.344 9.76C207.744 9.24 208.317 8.83333 209.064 8.54C209.81 8.23333 210.704 8.08 211.744 8.08C212.477 8.08 213.224 8.16 213.984 8.32C214.744 8.48 215.377 8.71333 215.884 9.02L214.844 11.24C214.324 10.9333 213.797 10.7267 213.264 10.62C212.744 10.5 212.237 10.44 211.744 10.44C211.05 10.44 210.544 10.5333 210.224 10.72C209.904 10.9067 209.744 11.1467 209.744 11.44C209.744 11.7067 209.857 11.9067 210.084 12.04C210.324 12.1733 210.637 12.28 211.024 12.36C211.41 12.44 211.83 12.5133 212.284 12.58C212.75 12.6333 213.217 12.72 213.684 12.84C214.15 12.96 214.57 13.1333 214.944 13.36C215.33 13.5733 215.644 13.8733 215.884 14.26C216.124 14.6333 216.244 15.1267 216.244 15.74C216.244 16.4067 216.044 17 215.644 17.52C215.244 18.0267 214.664 18.4267 213.904 18.72C213.157 19.0133 212.244 19.16 211.164 19.16ZM218.169 19V8.24H221.289V19H218.169ZM219.729 6.74C219.155 6.74 218.689 6.57333 218.329 6.24C217.969 5.90667 217.789 5.49333 217.789 5C217.789 4.50667 217.969 4.09333 218.329 3.76C218.689 3.42667 219.155 3.26 219.729 3.26C220.302 3.26 220.769 3.42 221.129 3.74C221.489 4.04667 221.669 4.44667 221.669 4.94C221.669 5.46 221.489 5.89333 221.129 6.24C220.782 6.57333 220.315 6.74 219.729 6.74Z" fill="#1D58EF"/>
</svg>
