<svg width="311" height="293" viewBox="0 0 311 293" fill="none" xmlns="http://www.w3.org/2000/svg">
<path fill-rule="evenodd" clip-rule="evenodd" d="M143.541 74.1928C143.269 78.5922 142.997 82.9913 142.725 87.3907C144.475 86.892 155.613 83.651 154.925 86.9372C154.431 89.2941 151.3 91.8436 149.705 93.4846C148.236 94.9954 146.724 96.4667 145.174 97.8951C148.024 96.8163 150.897 95.7947 153.791 94.8388C155.981 94.1157 158.187 93.4096 160.43 92.8677C161.263 92.6663 163.512 91.8448 164.299 92.405C166.367 93.8766 155.148 104.716 153.611 106.244C155.784 105.245 158.009 104.337 160.273 103.558C161.906 102.995 166.954 100.846 168.4 102.681C169.948 104.645 166.114 109.156 165.05 110.586C163.527 112.634 161.876 114.6 160.144 116.48C167.344 122.876 175.804 128.568 184.809 132.107C191.411 134.701 197.896 135.361 204.863 133.938C212.02 132.475 218.884 129.67 225.409 126.462C229.24 124.578 233.022 122.54 236.624 120.25C235.139 118.463 233.697 116.64 232.296 114.788C230.297 112.144 227.84 109.255 226.699 106.108C225.584 103.027 229.77 103.629 231.778 103.796C234.685 104.038 237.585 104.552 240.435 105.167C238.42 103.781 236.442 102.34 234.503 100.851C231.976 98.912 228.606 96.7188 226.953 93.9286C225.498 91.4749 228.69 92.0946 230.166 92.4161C233.685 93.1829 237.108 94.4892 240.464 95.7634C242.922 96.6966 245.365 97.6739 247.784 98.703C246.282 97.4122 244.831 96.0595 243.436 94.6569C241.562 92.7717 239.034 90.4695 238.193 87.8736C236.482 82.5869 247.995 86.5748 249.961 87.3907C249.598 81.9141 249.235 76.4375 248.872 70.9609C233.627 74.973 218.381 78.9855 203.136 82.998C201.488 83.4317 199.426 84.3761 197.708 84.4264C196.152 84.4724 194.272 83.7794 192.754 83.4928L165.166 78.2794C157.958 76.9172 150.749 75.555 143.541 74.1928Z" fill="#717171"/>
<path fill-rule="evenodd" clip-rule="evenodd" d="M307.396 262.561C305.75 263.493 303.822 264.212 301.994 264.694C300.92 264.978 299.146 265.854 298.202 265.051C297.749 264.666 297.646 263.791 297.378 263.284C296.955 262.481 296.354 261.787 295.791 261.078C294.426 259.358 293.006 257.699 291.519 256.081C290.815 255.315 289.528 253.525 288.287 253.643C286.741 253.789 286.778 255.907 287.166 256.989C288.4 260.433 292.136 263.436 294.576 266.03C293.956 266.975 290.548 266.862 289.602 266.641C288.157 266.304 288.011 265.287 287.351 264.123C285.809 261.403 282.681 259.881 280.109 258.282C279.171 257.699 277.178 256.083 275.956 256.489C274.798 256.875 274.848 258.338 275.217 259.293C275.774 260.737 277.359 261.739 278.531 262.651C280.094 263.868 281.523 265.192 282.826 266.681C280.949 266.832 279.078 267.094 277.205 267.246C274.941 267.431 273.053 266.202 270.968 265.506C269.031 264.858 267.101 264.311 265.196 263.565C263.057 262.727 260.817 262.436 258.66 261.701C250.193 258.817 241.897 255.189 233.739 251.533C229.851 249.791 226.043 248.047 221.992 246.684C219.04 245.69 214.401 243.709 213.695 240.231C213.323 238.394 214.68 236.418 214.88 234.582C215.115 232.422 214.93 230.045 214.265 227.973C213.679 226.147 212.707 224.456 211.941 222.704C211.049 220.661 211.848 220.694 213.581 220.462C215.655 220.183 218.076 219.028 220.026 218.276C222.272 217.409 224.499 216.198 226.556 214.953C228.417 213.826 230.036 212.374 231.518 210.798C233.024 209.193 234 207.293 235.457 205.649C240.834 212.19 245.945 218.829 251.658 225.087C254.355 228.041 257.287 230.483 260.61 232.728C261.998 233.667 263.374 234.738 264.886 235.479C266.777 236.407 268.89 236.983 270.833 237.83C278.283 241.077 285.393 244.626 292.344 248.815C295.706 250.841 298.528 253.165 301.489 255.707C302.411 256.498 309.96 261.11 307.396 262.561ZM220 208.982C218.796 209.521 217.648 210.222 216.364 210.568C216.728 208.377 218.796 205.071 221.446 205.435C222.459 205.574 223.223 206.352 222.778 207.424C222.374 208.399 220.858 208.598 220 208.982ZM136.196 149.545C134.831 150.29 133.56 150.725 132.759 149.125C133.352 149.007 136.045 148.652 136.196 149.545ZM133.924 145.023C132.869 144.706 133.713 144.374 134.076 143.992C134.358 143.695 135.294 142.652 135.622 142.48C137.069 141.722 138.187 144.543 138.879 145.458C137.241 145.314 135.518 145.501 133.924 145.023ZM145.202 154.788C143.203 155.123 143.424 152.65 143.484 151.396C143.906 151.905 146.761 154.527 145.202 154.788ZM151.827 150.515C149.39 150.922 147.779 146.757 148.216 144.935C148.601 143.33 150.49 142.434 151.993 142.198C153.451 141.968 155.48 142.281 155.913 143.944C156.296 145.413 153.452 150.244 151.827 150.515ZM209.524 213.389C207.772 213.922 206.056 213.989 204.296 214.511C202.298 215.104 200.449 215.052 198.448 215.455C197.634 215.619 195.437 216.793 194.643 216.531C193.856 216.271 192.717 213.856 192.265 213.228C195.806 211.772 198.827 209.892 201.161 206.825C203.017 204.385 205.008 200.731 203.84 197.582C202.523 194.033 197.984 193.262 194.957 194.745C193.525 195.446 192.106 196.318 190.926 197.386C189.576 198.608 189.045 199.941 188.171 201.448C187.286 202.972 186.666 202.124 185.782 200.83C185.027 199.724 185.126 198.607 184.182 197.516C183.7 196.959 182.955 196.422 182.704 195.703C182.544 195.247 182.88 194.438 182.578 194.079C182.153 193.575 181.636 194.168 181.28 193.717C181.022 193.39 181.106 192.644 180.839 192.235C180.608 192.002 180.35 191.804 180.065 191.639C179.72 191.47 179.657 191.259 179.876 191.005C179.601 190.502 179.866 190.332 179.277 189.72C178.36 188.766 177.524 187.852 176.871 186.726C176.573 186.21 176.602 185.446 176.231 185C175.723 184.387 174.875 184.479 174.438 183.721C174.048 183.046 174.309 181.864 173.666 181.251C173.327 181.155 172.988 181.061 172.649 180.969C172.394 180.724 172.245 180.426 172.203 180.076C171.846 179.533 171.775 178.894 171.325 178.32C170.462 177.222 169.302 176.208 168.54 175.05C167.74 173.833 168.164 173.628 169.555 173.193C170.81 172.8 171.955 172.435 173.118 171.766C178.494 168.671 183.591 160.463 175.058 157.955C171.891 157.025 169.29 154.522 165.778 155.506C164.256 155.933 162.812 156.841 161.677 157.918C160.892 158.663 160.166 160.655 159.202 161.036C157.47 161.722 158.202 160.008 157.711 159.221C157.476 158.845 156.531 158.412 156.181 158.07C155.77 157.669 155.373 157.163 155.088 156.667C154.558 155.746 154.234 155.233 153.47 154.484C153.182 154.2 151.745 152.738 153.041 152.929C152.516 151.347 153.282 151.109 154.341 149.952C155.585 148.594 156.869 146.708 156.877 144.805C156.891 141.152 152.514 139.515 149.766 141.683C149.206 142.125 145.898 146.384 146.575 143.668C146.94 142.203 150.319 138.379 151.886 139.368C150.13 136.837 146.097 142.982 145.156 144.239C144.355 142.78 144.298 141.638 142.971 140.508C141.892 142.221 142.462 140.349 142.224 139.968C141.71 139.147 141.992 140.086 141.713 139.795C141.366 139.431 140.819 139.144 140.45 138.663C139.817 139.512 140.07 138.599 139.876 138.281C139.423 137.54 139.598 137.11 138.821 136.465C138.255 135.996 137.141 135.267 136.38 135.201C135.503 135.124 135.26 135.457 134.366 135.21C133.228 134.897 131.796 134.417 132.347 136.299C132.747 137.666 134.372 138.443 134.728 139.84C135.087 141.247 133.681 142.664 132.999 143.817C132.123 145.296 131.407 145.175 129.82 145.509C128.805 145.722 127.452 146.178 128.322 147.395C128.943 148.264 130.398 148.081 131.218 148.596C132.368 149.318 132.352 151.098 133.82 151.408C135.436 151.749 136.362 149.969 137.725 149.539C138.694 149.233 141.695 149.268 142.458 149.987C143.497 150.968 142.599 152.841 142.861 154.059C143.25 155.865 144.486 155.976 146.048 156.033C147.972 156.104 148.648 157.931 149.683 159.38C152.106 162.775 154.212 166.393 156.694 169.742C157.793 171.225 159.4 172.544 160.3 174.153C161.411 176.14 159.869 177.287 158.538 178.713C156.798 180.577 155.5 182.698 153.991 184.736C152.651 186.547 150.985 186.096 148.843 186.096C149.32 185.123 149.895 184.516 151.069 184.634C149.841 183.15 148.859 184.847 148.062 185.787C146.91 187.146 145.407 187.474 143.927 188.367C143.403 188.683 140.55 190.733 141.417 191.432C141.515 191.512 146.238 188.439 146.775 188.158C146.775 189.292 146.525 190.47 146.685 191.598C146.803 192.425 147.391 193.288 147.266 194.148C147.028 195.771 144.907 197.05 143.997 198.314C143.311 199.266 143.477 200.017 143.128 201.039C142.81 201.971 142.977 201.689 142.184 201.977C140.57 202.563 137.854 202.247 136.392 201.413C135.485 200.896 134.789 200.078 134.052 199.357C133.497 198.813 132.1 197.885 131.946 197.125C131.681 195.816 134.309 193.383 134.83 192.033C136.299 188.221 133.78 185.259 129.86 185.042C131.068 184.121 132.565 184.815 133.839 185.167C131.662 182.183 127.944 184.638 126.097 186.666C124.836 183.512 124.227 180.184 123.456 176.894C122.931 174.654 120.933 170.656 121.824 168.35C122.255 167.235 123.472 166.614 124.313 165.841C125.269 164.962 126.088 163.912 126.787 162.824C128.434 160.263 129.385 157.029 127.118 154.505C127.806 154.392 128.496 154.281 129.185 154.168C128.064 153.127 126.296 153.634 124.842 153.325C123.919 153.13 121.263 153.256 120.647 152.74C119.906 152.119 120.381 149.261 120.408 148.416C120.469 146.439 120.636 144.539 120.857 142.574C121.066 140.718 121.024 138.714 121.411 136.89C121.726 135.411 122.732 134.96 123.893 134.088C126.667 132.003 128.928 129.467 127.98 125.874C128.316 125.821 128.652 125.769 128.987 125.716C127.902 124.94 126.497 125.222 125.29 124.812C126.399 121.725 128.851 116.299 132.832 116.007C132.969 117.387 132.875 119.028 133.817 120.17C134.888 121.47 136.769 121.601 138.221 120.914C139.538 120.289 140.774 118.965 141.382 117.657C141.792 116.772 141.718 115.275 142.439 114.573C143.406 113.632 150.072 114.199 149.868 115.788C149.748 116.722 147.965 118.292 147.467 119.12C146.555 120.635 145.825 122.273 145.49 124.014C144.982 126.656 145.277 130.144 147.99 131.533C151.075 133.113 154.835 131.104 157.366 129.368C158.755 128.415 160.101 127.363 161.37 126.259C162.047 125.671 162.726 125.065 163.322 124.397C163.762 123.903 164.113 123.108 164.655 122.738C165.934 121.865 167.188 123.346 168.271 124.094C170.035 125.313 171.79 126.47 173.683 127.485C177.524 129.543 181.036 132.269 184.433 134.976C187.849 137.699 191.371 140.5 194.139 143.892C192.462 144.912 192.762 145.176 192.016 146.995C191.487 148.286 190.758 149.385 190.674 150.819C190.528 153.295 192.135 155.404 194.573 155.952C195.937 156.259 197.237 156.013 198.5 155.462C199.482 155.033 200.461 153.978 201.487 153.716C203.394 153.23 204.92 156.793 205.989 158.048C210.736 163.622 215.755 168.976 220.226 174.778C220.721 175.421 222.191 176.676 222.311 177.527C222.483 178.749 220.539 179.913 219.733 180.613C219.31 180.981 214.821 185.157 216.329 185.821C216.758 186.01 218.016 183.448 218.33 183.229C219.507 182.408 218.617 184.016 218.547 184.829C218.371 186.85 219.775 187.951 221.747 187.694C223.852 187.421 225.726 185.778 227.028 184.226C228.66 186.095 231.212 188.922 231.684 191.42C231.985 193.015 230.589 196.921 233.195 197.246C233.593 197.296 235.033 196.24 235.301 196.839C235.525 197.34 233.969 198.195 233.744 198.361C232.785 199.069 232.206 199.828 231.432 200.685C230.523 201.692 229.281 202.54 228.258 203.505C227.181 204.521 225.05 207.281 223.628 205.947C222.914 205.277 223.102 204.401 221.957 204.008C220.915 203.65 219.595 204.104 218.626 204.501C217.536 204.948 213.945 206.579 213.546 207.922C212.997 209.775 215.965 207.548 216.492 207.222C215.891 208.733 215.558 210.921 214.025 211.802C212.752 212.534 210.921 212.965 209.524 213.389ZM189.169 201.962C190.188 198.722 196.198 192.946 199.996 194.753C195.569 195.67 192.056 198.667 189.169 201.962ZM191.416 211.239C189.935 210.423 190.015 208.051 189.498 206.664C189.201 205.867 188.607 205.286 188.782 204.403C188.986 203.367 190.322 202.216 191.033 201.469C193.27 199.118 197.207 195.905 200.809 196.444C205.393 197.13 202.285 203.217 200.724 205.312C199.394 207.099 194.268 212.811 191.416 211.239ZM180.723 207.277C175.765 206.949 170.825 206.511 165.935 205.611C164.202 205.292 162.749 205.339 163.741 203.368C164.069 202.718 166.044 198.64 166.489 198.757C166.754 198.826 166.693 201.629 166.771 201.95C167.121 203.393 168.104 204.737 169.761 204.646C172.473 204.496 174.22 201.029 175.648 199.168C176.791 200.689 177.619 202.378 178.769 203.874C179.318 204.588 181.231 206.251 180.723 207.277ZM151.66 188.031C150.828 189.919 149.156 191.714 147.992 193.424C147.335 192.047 146.872 188.886 148.432 187.868C149.023 187.483 152.186 186.838 151.66 188.031ZM168.853 193.652C169.081 192.925 169.335 192.205 169.618 191.497C170.103 193.007 170.351 193.052 168.853 193.652ZM173.096 195.198C173.698 196.207 174.701 197.199 174.543 198.466C174.424 199.426 173.547 200.409 172.92 201.078C171.884 202.185 169.587 204.309 168.085 202.839C166.83 201.612 167.267 198.237 167.851 196.856C168.684 194.883 171.662 192.795 173.096 195.198ZM170.152 193.131C170.497 192.996 169.772 190.794 170.445 190.575C171.031 191.897 171.584 192.255 170.152 193.131ZM160.68 163.502C160.456 162.69 159.944 162.724 160.129 161.72C160.25 161.061 160.778 160.358 161.179 159.836C161.978 158.796 163.031 157.939 164.171 157.29C166.577 155.921 169.881 155.352 172.034 157.496C170.021 157.81 163.848 159.776 163.809 162.5C166.048 162.074 167.808 159.849 170.054 159.148C171.898 158.572 173.897 158.613 175.731 159.221C180.75 160.883 178.663 165.174 175.83 167.962C174.148 169.617 172.131 170.852 169.927 171.704C168.906 172.099 168.28 172.142 167.277 171.944C167.089 171.907 166.87 171.562 166.645 171.489C166.085 171.305 166.248 171.926 165.786 171.647C165.384 171.404 164.526 169.834 164.253 169.385C163.817 168.669 163.614 167.974 163.08 167.321C162.545 166.667 162.284 165.791 161.789 165.2C161.552 164.916 160.901 164.927 160.726 164.65C160.463 164.232 160.797 163.929 160.68 163.502ZM152.971 195.504C154.112 193.543 156.063 191.879 157.574 190.165C157.666 192.982 155.624 194.91 152.971 195.504ZM154.513 196.409C156.869 195.589 158.167 193.628 158.407 191.249C158.712 188.236 160.625 186.655 161.776 183.949C162.218 182.911 162.732 179.498 164.444 180.475C165.031 180.81 165.379 182.07 165.685 182.64C166.425 184.017 167.267 185.352 168.052 186.705C168.691 187.806 169.649 188.913 169.367 190.239C169.121 191.395 168.33 192.626 167.867 193.716C166.772 196.29 165.335 198.661 164.133 201.179C163.649 202.195 163.075 204.599 161.596 204.587C160.424 204.577 160.555 203.311 159.784 202.877C158.811 202.329 157.704 203.371 156.905 203.803C157.825 202.266 159.435 201.395 161.244 201.685C159.078 199.551 157.614 202.43 155.755 203.071C153.993 203.679 150.868 200.813 149.384 200.001C149.952 199.051 150.465 197.888 151.44 197.263C152.366 196.67 153.502 196.761 154.513 196.409ZM135.357 215.909C135.615 214.681 136.344 213.954 136.807 212.839C137.342 214.191 136.088 214.99 135.357 215.909ZM172.791 223.449C172.664 227.586 172.322 231.713 172.199 235.851C172.142 237.76 171.8 239.581 171.574 241.467C171.382 243.062 171.48 244.629 170.464 245.992C168.863 248.141 165.751 248.759 163.334 249.555C161.56 250.14 159.765 250.67 158.013 251.319C156.436 251.904 155.165 252.789 153.666 253.484C152.325 254.105 150.877 254.474 149.542 255.136C148.161 255.821 147.069 256.656 145.651 257.265C143.953 257.995 142.554 259.294 141.044 260.325C139.715 261.232 138.308 261.933 137.165 263.074C136.092 264.145 134.735 264.615 133.52 265.566C132.235 266.572 130.89 267.225 129.47 268.014C126.562 269.63 122.639 272.391 119.139 270.821C120.14 269.556 122.188 268.341 122.344 266.599C122.547 264.33 120.55 265.165 119.393 265.89C117.642 266.987 116.673 268.312 115.339 269.775C113.78 271.485 111.811 270.335 109.904 269.854C111.208 268.692 112.502 267.52 113.804 266.357C114.903 265.375 116.584 264.314 117.254 262.956C117.732 261.985 117.709 260.655 116.554 260.151C115.263 259.587 113.802 260.776 112.846 261.483C110.307 263.362 108.634 265.745 106.967 268.36C106.081 269.75 105.672 269.644 104.041 269.366C102.312 269.071 100.583 268.757 98.8393 268.55C101.149 266.205 103.729 263.664 105.553 260.92C106.144 260.03 106.914 257.687 105.114 257.471C104.373 257.382 102.896 258.882 102.323 259.287C99.8227 261.055 97.4186 263.285 95.7611 265.866C95.2139 266.718 95.0421 267.665 93.9826 267.736C92.5975 267.828 90.0236 266.521 88.6873 266.117C91.2413 262.933 93.7772 259.726 96.7609 256.918C99.5023 254.338 102.237 252.463 105.443 250.484C108.879 248.363 112.08 245.921 115.235 243.415C118.255 241.016 121.409 238.753 124.189 236.075C129.742 230.724 134.687 224.571 138.783 218.065C139.741 216.542 140.643 214.98 141.423 213.36C142.155 211.839 142.493 210.019 143.481 208.636C143.823 208.158 144.304 207.802 144.608 207.304C144.896 206.834 144.798 206.266 145.236 205.85C146.249 204.889 148.092 205.468 149.039 206.142C150.561 207.226 151.792 208.541 153.465 209.448C155.148 210.361 156.968 211.024 158.831 211.472C163.185 212.519 167.502 213.379 171.938 214.015C171.482 215.689 172.603 215.953 172.974 217.46C173.425 219.288 172.847 221.587 172.791 223.449ZM130.863 195.529C129.875 194.078 128.995 192.561 128.024 191.101C127.433 190.212 126.701 189.257 127.206 188.169C128.056 186.335 131.058 186.009 132.686 186.808C136.389 188.626 132.95 193.822 130.863 195.529ZM121.062 162.35C120.721 159.514 121.817 157.502 124.411 156.016C126.26 154.956 127.748 156.404 127.496 158.336C127.112 161.279 123.932 164.552 121.505 166.088C121.347 164.843 121.212 163.595 121.062 162.35ZM120.667 154.237C121.432 153.636 123.481 154.402 124.367 154.455C123.148 155.508 121.929 156.561 120.71 157.615C120.63 156.892 119.961 154.791 120.667 154.237ZM124.78 126.853C130.949 126.059 123.848 132.607 122.06 133.633C122.351 132.24 123.066 127.074 124.78 126.853ZM141.203 115.389C140.375 118.745 133.935 122.406 133.868 116.909C133.843 114.861 135.006 115.027 136.704 114.83C137.673 114.718 141.676 113.471 141.203 115.389ZM118.96 120.586C118.237 122.463 117.657 124.388 116.949 126.267C116.635 127.099 116.265 127.671 115.681 128.33C115.191 128.881 114.609 129.02 114.628 129.891C115.241 129.774 115.721 129.413 116.217 129.064C116.096 130.791 115.479 132.65 115.18 134.371C114.822 136.436 114.524 138.501 114.414 140.594C114.174 145.146 114.172 149.682 114.273 154.237C114.324 156.558 114.348 158.88 114.474 161.198C114.537 162.351 114.609 163.509 114.753 164.655C114.811 165.118 115.151 166.103 114.941 166.537C114.117 168.24 110.467 163.563 108.882 164.249C109.11 162.954 108.584 163.237 107.706 162.6C107.281 162.291 107.004 161.766 106.56 161.491C106.426 161.348 106.278 161.22 106.117 161.109C105.934 160.861 105.74 160.888 105.537 161.188C103.751 160.132 103.289 157.882 102.331 156.368C101.838 155.59 101.362 155.468 101.278 154.392C101.205 153.455 101.347 152.499 101.309 151.558C101.265 150.495 101.202 149.324 100.901 148.296C100.551 147.102 100.07 147.199 99.1333 146.563C99.4221 146.438 99.6124 146.228 99.7045 145.934C99.4053 145.986 98.4961 146.353 98.2702 146.089C97.8259 145.572 98.8742 145.503 99.1498 145.296C97.9741 144.78 98.2273 144.356 98.6515 143.41C98.7716 143.142 98.8862 142.742 98.9883 142.516C99.2115 142.023 99.3396 142.336 99.4133 141.723C99.4834 141.139 98.9599 139.991 98.8057 139.368C98.5469 138.325 98.4039 137.423 98.6363 136.335C98.8245 135.455 99.3308 134.657 99.3661 133.752C99.3761 133.498 98.9843 133.413 98.9791 133.168C98.9715 132.809 99.31 132.651 99.3981 132.32C99.6228 131.471 99.5215 130.574 99.906 129.769C100.252 129.046 100.951 128.11 101.446 127.479C101.789 127.041 102.63 126.549 102.722 125.971C102.783 125.589 102.181 125.633 102.208 125.344C102.244 124.954 102.575 124.828 102.666 124.538C102.916 123.742 102.979 122.978 103.626 122.368C104.441 121.6 104.795 121.922 104.828 120.656C104.845 120.038 104.345 119.943 104.613 119.231C104.758 118.844 105.187 118.616 105.462 118.342C106.276 117.529 106.826 116.807 107.406 115.803C107.919 114.916 108.737 114.4 109.263 113.633C109.947 112.634 108.924 112.139 110.313 111.857C110.115 111.237 109.905 110.736 110.425 110.211C110.753 109.88 111.584 110.083 111.874 109.7C112.207 109.26 111.715 108.218 112.216 107.933C112.624 107.701 113.234 108.416 113.874 108.062C114.362 107.792 115.098 106.304 114.941 105.756C116.202 106.458 115.888 105.975 116.492 105.074C116.627 104.873 117.037 104.828 117.154 104.624C117.387 104.217 117.334 103.802 117.669 103.471C118.229 102.92 119.144 103.061 119.76 102.668C120.268 102.342 120.242 101.992 120.647 101.685C120.994 101.423 121.564 101.373 121.901 101.101C122.562 100.569 122.568 100.007 123.394 99.5489C124.373 99.0065 125.24 98.545 126.13 97.8258C126.71 97.3572 127.261 96.5262 127.94 96.2169C128.879 95.7891 129.61 95.759 130.529 95.1488C131.192 94.7075 131.82 93.9796 132.472 93.6077C132.963 93.3278 133.308 93.3881 133.928 93.2144C135.043 92.9016 135.314 91.8625 136.224 91.4394C136.849 91.1488 137.758 91.4149 138.444 91.2622C140.578 90.7884 142.686 89.7663 144.827 89.2002C147.441 88.5095 150.074 87.9045 152.708 87.2939C150.287 90.5386 147.204 93.4662 144.077 96.0433C143.051 96.8893 137.427 100.746 140.458 102.393C141.675 103.054 144.319 100.919 145.301 100.397C147.28 99.3459 149.329 98.5046 151.401 97.6545C154.752 96.28 159.115 93.8353 162.839 94.032C160.572 96.7823 157.743 98.9902 155.15 101.42C152.768 103.653 149.178 105.747 150.302 109.402C146.955 108.559 143.949 107.564 140.47 107.785C138.911 107.883 137.352 107.698 135.801 107.914C134.114 108.15 132.525 108.708 130.904 109.198C129.621 109.586 128.204 109.616 127.024 110.26C126.454 110.572 125.749 111.017 125.237 111.403C124.554 111.919 124.398 112.26 123.862 112.939C121.948 115.363 120.097 117.634 118.96 120.586ZM108.493 166.451C108.389 166.032 108.294 165.649 108.174 165.17C109.239 165.819 109.239 165.819 108.493 166.451ZM100.444 153.093C100.313 153.273 99.7614 153.33 99.6012 153.175C99.4017 152.983 99.926 152.232 100.01 152.073C100.218 152.231 100.696 152.747 100.444 153.093ZM98.164 148.232C98.305 147.719 98.4464 147.208 98.5874 146.695C98.7604 147.17 99.5411 147.695 99.5583 148.147C99.5691 148.447 98.3182 148.298 98.164 148.232ZM98.6166 148.934C99.8387 149.73 99.9665 150.669 100.003 152.042C98.5405 151.563 98.7504 150.163 98.6166 148.934ZM119.869 94.7369C119.746 95.0671 119.222 96.096 118.839 95.3764C118.716 95.146 119.614 94.8316 119.869 94.7369ZM119.518 93.6153C119.82 93.3461 120.429 93.6811 120.771 93.4634C121.01 93.3108 120.931 93.1562 121.044 93.0658C121.066 93.0475 121.392 92.3957 121.525 92.2478C121.761 91.9877 122.274 91.8256 122.561 91.5909C123.361 90.9347 123.813 90.072 124.316 89.1946C124.917 88.1467 125.109 88.0254 126.078 87.5457C126.746 87.215 127.264 86.8102 127.807 86.248C128.434 85.6006 128.388 85.1371 128.902 84.4294C129.156 84.0801 129.522 84.0369 129.818 83.7554C130.173 83.4184 130.353 82.947 130.681 82.6068C130.823 82.4597 131.278 82.4601 131.363 82.3341C131.473 82.1747 131.558 81.5372 131.661 81.4198C131.856 81.6815 132.053 81.9431 132.248 82.2048C133.02 80.8616 133.584 79.7518 134.875 78.8578C136.232 77.919 137.403 76.5456 138.804 75.7051C139.119 75.5163 139.761 75.4366 140.002 75.1583C140.409 74.6873 140.057 74.2682 140.353 73.8682C140.69 73.4146 141.343 73.7818 141.771 73.5863C142.313 73.3389 142.468 72.6161 143.166 72.6958C140.871 75.3803 140.9 79.5572 140.778 82.9101C140.726 84.3549 141.646 85.0832 140.287 86.1434C139.132 87.0453 137.503 86.7777 136.137 87.3712C134.422 88.1166 132.587 88.5131 130.837 89.1629C129.027 89.8345 127.572 91.0108 125.83 91.7891C124.294 92.475 123.245 93.4503 121.839 94.2972C121.317 94.612 120.508 95.0691 119.885 94.6929C119.495 94.457 119.009 94.0696 119.518 93.6153ZM145.43 71.1064C145.53 70.725 147.488 69.7227 147.97 69.3956C148.693 68.904 149.764 67.7035 150.571 68.1804C150.85 67.0727 151.941 65.8401 152.906 65.6053C153.975 65.3445 155.81 64.4373 156.862 63.6456C157.169 63.4144 157.271 63.0762 157.632 62.8594C158.262 62.4815 158.887 62.6877 159.493 62.1727C159.586 62.0942 160.425 60.7236 160.459 60.7367C160.502 60.8838 160.541 61.0324 160.575 61.1819C161.212 60.8326 161.779 60.5547 162.176 60.1091C162.266 60.008 161.682 59.7451 161.867 59.5449C162.092 59.2999 162.596 59.5738 162.824 59.3411C162.115 62.8221 162.643 67.3026 166.213 69.0673C161.967 69.5213 157.819 68.2585 153.521 69.034C151.463 69.4055 149.371 70.0149 147.5 70.951C146.353 71.5247 144.886 73.5792 143.745 72.5817C144.198 71.9842 144.889 71.6131 145.43 71.1064ZM166.034 61.0919C167.622 59.171 170.03 58.411 172.456 59.0988C175.296 59.9045 174.098 61.867 173.669 64.046C172.85 62.8578 171.075 61.6791 169.563 61.6434C167.42 61.593 168.23 63.3589 169.517 63.9917C170.687 64.5666 172.693 64.7268 173.531 65.7723C174.346 66.7896 174.033 68.4532 174.165 69.6529C173.531 69.5597 172.897 69.4666 172.263 69.3734C172.795 66.5735 170.455 66.4379 168.272 65.6486C166.066 64.8512 164.227 63.2781 166.034 61.0919ZM173.147 54.1973V56.7957C172.264 56.2978 171.381 55.8002 170.497 55.3022C171.381 54.9339 172.264 54.5656 173.147 54.1973ZM180.244 74.9601C183.193 75.7503 186.121 76.5864 188.955 77.6767C189.985 78.0728 191.112 78.2127 192.121 78.66C193.081 79.0854 193.226 79.041 192.884 79.8736C191.927 82.206 189.66 81.8032 187.673 81.4464C184.564 80.8877 181.52 80.1134 178.45 79.3847C175.449 78.673 172.384 78.2064 169.429 77.3143C166.396 76.3993 163.44 75.5326 160.32 74.9284C159.41 74.7519 152.207 74.0986 152.262 73.354C156.798 72.7712 161.468 73.3453 166.024 73.4059C170.76 73.469 175.652 73.7286 180.244 74.9601ZM176.242 65.9376C176.299 64.3339 176.321 62.725 176.522 61.1308C177.872 62.7781 179.09 63.2713 180.791 61.7271C182.42 60.249 182.783 59.4783 184.848 60.8679C186.638 62.0732 188.332 62.0177 190.233 60.9627C191.392 60.3192 193.256 57.6898 194.474 58.231C195.055 58.4891 195.481 59.529 196.067 59.9116C196.803 60.3909 197.935 60.7236 198.792 60.9095C200.818 61.3484 202.025 60.0599 203.296 58.6818C205.14 56.6831 205.086 57.844 206.795 59.2297C208.702 60.7755 210.296 60.0202 212.023 58.7012C213.075 61.7489 213.468 65.0772 213.765 68.2724C213.865 69.3512 214.24 70.8832 213.26 71.646C212.569 72.184 211.104 72.205 210.272 72.5024C207.3 73.5653 204.444 75.0731 201.958 77.0035C200.989 77.7556 200.145 78.6766 198.822 78.5053C197.56 78.342 196.335 77.2977 195.32 76.6082C194.219 75.8605 193.105 75.0112 191.819 74.5945C191.065 74.3503 189.858 74.4387 189.199 73.9911C187.973 73.1589 189.416 70.9759 189.111 69.5106C188.88 68.3981 188.232 66.0783 186.683 66.7305C184.377 67.7007 185.719 71.4882 186.987 72.6705C184.393 72.2149 181.522 71.5496 179.02 70.7044C177.088 70.0514 176.173 67.8938 176.242 65.9376ZM219.741 73.7489C225.065 72.2704 230.047 71.2733 235.588 71.0041C238.041 70.8848 240.415 70.9601 242.84 70.9819C244.237 70.9946 245.301 69.8809 244.185 68.5999C242.641 66.8261 237.932 67.5013 235.846 67.4216C230.253 67.2079 225.126 67.8367 219.829 69.6601C220.389 68.6395 221.734 68.5071 222.657 67.9794C223.788 67.3316 224.557 66.2647 225.041 65.0804C226.298 62.0006 225.032 59.0984 223.717 56.2851C226.301 56.9726 228.974 58.478 231.571 58.8602C232.116 58.9403 232.465 58.8887 232.947 59.085C233.243 59.2051 233.336 59.621 233.703 59.7118C233.88 59.7558 234.305 59.3601 234.505 59.416C235.296 59.6373 234.671 59.6959 235.171 60.0163C235.568 60.2704 235.536 60.5975 236.264 60.4774C236.587 60.4246 236.937 59.9306 237.107 59.9172C237.324 59.8997 237.274 59.6388 237.606 59.715C238.209 59.8537 238.156 60.6225 238.357 61.0007C238.571 61.4035 238.266 61.9392 238.917 62.1596C239.404 62.3245 239.526 61.8163 239.94 61.8527C240.191 61.8749 240.713 62.233 240.935 62.451C241.65 63.1536 242.628 63.9295 243.59 64.3866C243.495 64.2926 244.043 64.0662 243.912 64.0131C243.824 63.9778 244.399 64.115 244.39 64.113C244.945 64.2379 245.238 65.0808 245.519 65.3881C246.035 65.9515 246.836 66.5462 247.559 66.7948C248.809 67.2249 248.771 66.7107 249.228 68.18C250.116 66.7979 250.457 69.1125 251.56 69.3675C252.13 69.4995 252.064 69.2576 252.583 69.553C252.939 69.7556 253.176 70.3761 253.445 70.6754C253.56 70.2437 253.675 69.8115 253.79 69.3801C254.584 70.8677 256.297 73.2267 258.177 72.8001C258.177 73.2061 258.008 73.6914 258.325 74.0379C258.547 74.2801 258.907 74.005 259.08 74.1457C259.232 74.2686 259.594 74.7579 259.71 74.8384C259.939 74.997 260.355 75.1127 260.553 75.2709C260.728 75.4101 260.815 76.075 261.009 76.3152C261.374 76.7668 262.005 76.8564 262.303 77.398C262.371 76.8639 262.439 76.3295 262.507 75.7955C263.099 76.2478 263.15 76.5991 263.295 77.2608C263.502 78.2032 263.228 77.9824 263.885 78.3801C264.531 78.7714 264.868 78.7274 265.46 79.4061C266.04 80.0714 266.045 80.4814 266.883 79.7883C267.039 80.301 267.089 80.9643 267.504 81.3572C267.818 81.6541 269.119 81.6668 269.243 82.3682C266.8 80.3291 268.408 83.4259 269.244 82.3733C269.421 83.5001 270.255 83.864 271.207 84.6665C272.095 85.4143 272.241 85.3599 272.544 86.6164C272.537 86.5886 272.99 86.8665 273.023 86.922C272.158 87.0441 273.499 88.0004 273.726 88.1753C273.891 88.3029 274.107 87.9981 274.381 88.2046C274.696 88.4409 274.952 88.9781 275.208 89.3021C275.901 90.1802 276.414 90.9347 277.144 91.6488C277.932 92.4195 278.315 93.3936 279.071 94.2944C279.91 95.2947 280.363 96.4449 281.065 97.5308C281.732 98.5636 282.617 99.3927 283.389 100.338C284.62 101.843 285.039 105.158 287.334 105.245C287.199 105.383 287.386 106.41 287.408 106.599C287.517 107.532 287.445 108.43 288.003 109.275C288.13 108.311 288.64 108.682 289.083 109.189C289.82 110.031 289.173 109.819 289.212 110.673C289.259 111.707 289.378 110.907 289.777 111.811C290.089 112.518 290.26 112.977 290.427 113.763C289.131 113.864 288.537 112.817 288.058 111.802C287.858 111.377 287.789 110.679 287.434 110.348C287.057 109.994 286.539 109.967 286.151 109.572C285.407 108.815 285.084 107.635 284.207 106.897C283.216 106.065 282.997 105.672 282.177 104.676C281.271 103.575 280.02 102.802 279.07 101.737C278.117 100.67 278.195 101.253 276.999 100.866C275.727 100.455 273.67 96.5004 272.068 98.0236C272.132 97.0273 270.623 96.09 269.86 95.7289C269.53 95.573 269.147 95.7142 268.817 95.4803C268.459 95.2265 268.433 94.7373 268.072 94.4328C268.073 94.4332 267.519 94.5656 267.407 94.5097C267.178 94.3951 267.177 93.9899 266.975 93.8567C266.416 93.4876 265.751 93.1006 265.158 92.7862C263.718 92.0222 262.445 91.0814 261.055 90.1616C259.865 89.3734 258.423 87.9501 257.047 87.5346C255.845 87.1718 255.089 87.3566 254.105 86.6298C253.569 86.2342 253.727 86.1013 252.865 85.8551C252.045 85.6208 251.584 85.7413 251.149 84.881C250.389 83.3756 250.869 80.4373 250.722 78.7492C250.566 76.9575 250.38 75.1215 249.908 73.3794C249.349 71.3205 248.612 70.2441 246.378 70.7289C241.954 71.6908 237.583 72.6058 233.139 73.4503C224.282 75.133 215.578 77.8789 206.916 80.3168C206.256 80.5028 202.575 81.3361 203.327 79.4537C203.674 78.5854 206.003 78.2619 206.783 77.9891C211.064 76.4905 215.365 74.9637 219.741 73.7489ZM218.253 69.9174C217.606 70.1612 216.959 70.405 216.313 70.6493V68.8703C216.959 69.2192 217.606 69.5681 218.253 69.9174ZM215.565 60.5111C216.127 60.9654 217.269 59.872 217.747 59.6503C218.564 59.2721 219.603 58.9474 220.515 59.0251C222.197 59.169 223.427 60.8068 223.119 62.4673C222.598 65.2767 218.55 66.6052 216.319 67.7035C216.247 66.7079 215.922 65.511 216.627 64.6498C217.24 63.9021 218.429 63.9564 218.994 63.1611C220.417 61.1621 216.561 60.9809 215.699 62.5704C215.358 61.5546 215.018 60.5388 214.678 59.5231C215.499 59.3887 215.139 60.1669 215.565 60.5111ZM219.545 55.012C218.742 55.5254 217.939 56.0389 217.137 56.5523C216.738 54.7749 218.095 54.541 219.545 55.012ZM292.716 116.874C291.665 117.371 291.402 116.185 290.646 116.134C291.539 115.591 291.539 115.591 292.716 116.874ZM296.993 142.758C297.124 144.461 297.022 146.185 297.251 147.882C297.426 149.172 297.954 150.374 298.011 151.679C298.134 154.539 297.158 157.45 295.187 159.547C293.322 161.529 290.653 163.236 288.136 164.069C287.001 164.445 285.817 165.277 284.715 165.584C283.496 165.925 282.338 165.184 281.333 166.513C280.663 160.812 281.152 154.856 281.1 149.119C281.047 143.37 281.109 137.62 280.126 131.933C279.25 126.868 277.524 121.171 274.342 117.027C273.049 115.345 271.458 113.967 269.78 112.676C268.909 112.007 268.038 111.292 267.068 110.763C265.575 109.949 264.304 110.062 262.68 109.83C260.357 109.498 258.197 109.218 255.865 109.865C253.694 110.468 251.303 111.154 249.358 112.201C247.421 113.244 245.172 113.674 243.161 114.608C241.793 115.243 238.951 117.366 237.434 116.984C235.964 116.614 233.79 114.148 232.852 113.043C231.653 111.631 230.661 109.995 229.598 108.476C229.224 107.943 228.463 107.119 228.366 106.434C228.197 105.245 228.679 105.634 229.827 105.767C232.779 106.109 235.555 106.651 238.384 107.57C239.792 108.027 242.545 109.877 243.953 108.768C246.103 107.076 242.836 104.167 241.64 103.19C239.601 101.524 237.231 100.288 235.058 98.8083C232.75 97.2358 229.697 95.5619 228.212 93.1407C232.55 94.4074 236.884 95.8581 241.096 97.4912C243.023 98.2381 244.928 99.0275 246.737 100.021C247.754 100.579 249.808 102.088 251.032 101.365C253.693 99.7939 247.581 95.2309 246.699 94.2984C245.329 92.8493 243.986 91.4141 242.48 90.0994C241.464 89.2125 239.868 88.5888 239.396 87.2804C241.082 87.8843 242.445 89.0669 244.025 89.8706C244.852 90.2916 245.606 90.5339 246.519 90.6627C247.492 90.8007 247.609 90.9542 248.376 91.3367C248.973 91.6353 249.586 92.0341 250.257 92.2371C250.735 92.3818 251.57 92.4068 251.987 92.6748C252.201 92.9762 252.421 93.2723 252.649 93.5633C252.904 93.6375 253.155 93.7227 253.402 93.8198C253.772 94.1465 253.992 94.5969 254.352 94.9339C256.968 97.3802 260.466 99.131 263.399 101.18C266.173 103.119 269.117 104.873 271.781 106.989C274.848 109.425 278.03 112.042 280.638 114.962C282.112 116.613 283.324 118.484 284.562 120.309C285.458 121.631 286.762 122.727 287.537 124.09C289.226 127.06 290.629 130.272 292.447 133.195C294.301 136.173 296.715 139.132 296.993 142.758ZM272.068 159.995C272.573 157.933 275.424 155.526 277.246 154.616C276.328 156.863 273.882 158.395 272.068 159.995ZM276.769 167.187C275.215 170.375 268.383 170.74 269.31 166.021C269.764 163.709 271.692 162.291 273.346 160.778C274.112 160.079 275.985 157.578 277.169 157.981C277.114 159.779 277.007 161.585 277.011 163.383C277.013 164.584 277.319 166.058 276.769 167.187ZM274.794 130.438C275.425 131.838 276.053 133.004 274.883 134.257C274.355 134.822 272.635 136.059 271.858 135.784C269.36 134.903 274.122 131.068 274.794 130.438ZM259.689 117.978C260.29 117.946 260.874 118.034 261.469 117.998C262.061 117.961 262.123 117.858 262.672 117.932C262.73 118.015 262.788 118.098 262.846 118.181C262.921 118.74 263.218 118.801 263.736 118.364C264.456 118.522 264.925 118.628 265.614 119.013C263.754 120.339 261.491 121.881 259.211 122.327C255.608 123.03 256.603 118.146 259.689 117.978ZM204.447 147.801C204.073 148.545 202.998 146.687 202.732 146.341C203.228 146.34 204.824 147.051 204.447 147.801ZM233.4 128.232C236.2 126.616 239.525 125.197 242.532 123.995C243.061 126.514 240.482 129.767 238.894 131.491C237.61 132.885 236.061 134.331 234.32 135.133C232.437 136.001 230.38 135.62 230.471 133.186C230.505 132.296 230.709 130.865 231.075 130.051C231.548 129.003 232.44 128.785 233.4 128.232ZM195.555 82.4015C195.971 82.3773 200.498 81.7984 200.474 82.3555C200.403 84.0298 196.009 82.7151 195.555 82.4015ZM163.545 114.73C165.936 111.812 169.796 108.663 169.852 104.585C169.935 98.585 163.203 101.579 159.817 101.828C161.608 100.089 170.602 92.7918 165.282 90.2001C163.752 89.4551 161.579 90.183 160.045 90.5731C157.322 91.2658 154.791 92.4651 152.116 93.2997C154.027 91.2876 157.329 89.0007 157.221 85.9535C157.089 82.2441 154.01 83.1409 151.348 83.6852C150.325 83.8946 145.755 85.6926 144.897 84.4718C144.582 84.0246 145.091 83.4565 145.199 83.0584C145.389 82.3539 145.33 82.1081 145.337 81.3885C145.35 79.9366 146.325 78.0724 145.53 76.722C145.348 77.0289 145.192 77.348 145.063 77.6799C144.8 76.8941 144.977 76.0607 144.714 75.2749C151.36 76.9559 158.121 77.8761 164.809 79.311C168.194 80.0373 171.381 81.2882 174.813 81.8512C178.274 82.4185 181.675 83.2872 185.142 83.8284C188.306 84.322 191.337 85.1439 194.47 85.7742C197.525 86.3888 200.657 85.042 203.638 84.36C210.315 82.8328 216.989 81.2683 223.675 79.7863C231.39 78.0756 239.415 76.613 246.8 73.76C246.943 77.5625 247.25 81.358 247.72 85.1343C244.459 83.6095 239.619 81.6212 236.322 84.3497C235.003 85.4412 234.596 87.326 235.118 88.929C235.685 90.6738 237.424 91.4842 238.571 92.7977C235.08 91.9124 226.072 85.6708 224.469 91.9798C223.337 96.4358 228.86 99.3142 231.561 101.822C228.879 101.303 225.287 99.1821 223.712 102.591C222.351 105.537 223.991 108.743 225.67 111.174C226.58 112.49 227.603 113.73 228.571 115.006C229.082 115.68 229.582 116.365 230.119 117.02C230.658 117.677 231.675 118.365 232.053 119.072C232.814 120.497 231.279 120.584 230.085 121.099C228.595 121.743 227.315 122.823 225.952 123.683C222.831 125.654 220.103 127.485 216.415 128.115C212.617 128.763 208.961 129.44 205.214 130.344C201.479 131.246 198.429 132.112 194.611 130.947C192.87 130.416 191.452 129.944 189.605 130.043C187.666 130.149 186.532 130.049 184.937 128.861C178.075 123.749 170.627 119.555 163.545 114.73ZM151.174 109.598C153.826 108.282 156.496 106.96 159.235 105.829C161.503 104.893 164.946 103.802 167.428 104.212C166.729 105.99 165.452 107.449 164.082 108.758C162.871 109.915 161.358 111.663 159.892 112.471C158.561 113.204 157.012 112.042 155.7 111.556C154.257 111.021 152.273 110.772 151.174 109.598ZM151.841 116.238C153.162 115.694 156.003 117.517 157.205 117.991C159.567 118.922 161.942 119.895 164.024 121.365C161.482 124.27 158.603 126.927 155.182 128.793C152.932 130.021 149.138 131.429 147.015 129.2C144.348 126.398 147.555 120.69 149.443 118.289C149.505 118.7 149.568 119.11 149.631 119.521C150.233 118.567 150.693 116.709 151.841 116.238ZM200.358 141.104C198.709 141.448 198.149 141.138 197.06 139.887C196.325 139.042 195.602 138.164 194.772 137.404C193.925 136.628 191.834 134.758 194.498 135.835C196.927 136.816 199.007 137.307 201.678 136.923C204.733 136.483 207.581 135.206 210.593 134.559C208.942 135.988 207.303 137.431 205.648 138.856C203.901 140.362 202.578 140.642 200.358 141.104ZM200.735 152.596C197.122 155.286 189.848 154.995 192.296 149.078C192.668 148.179 193.188 147.333 193.79 146.568C193.991 146.312 194.348 145.782 194.634 145.611C195.433 145.131 195.212 145.073 195.98 145.873C196.643 146.562 201.823 152.196 200.735 152.596ZM199.664 142.315C199.994 142.209 201.389 141.409 201.707 141.852C202.028 142.3 199.294 143.849 199.664 142.315ZM225.967 183.329C225.155 185.251 218.653 188.035 219.864 184.159C220.401 182.442 220.907 181.143 222.931 181.012C224.099 180.937 226.682 181.636 225.967 183.329ZM237.63 157.276C238.7 155.734 242.235 153.65 243.744 155.949C244.471 157.056 242.707 157.623 241.64 157.339C241.067 157.185 240.598 156.847 239.975 156.821C239.175 156.789 238.392 157.41 237.63 157.276ZM240.467 158.806C239.74 159.534 235.35 163.187 234.639 162.624C236.073 160.597 237.719 158.334 240.467 158.806ZM233.298 195.773C231.774 195.858 232.535 193.586 232.683 192.678C233.052 193.311 234.992 195.678 233.298 195.773ZM237.171 191.701C236.678 190.833 235.35 189.542 235.65 188.425C235.88 187.572 237.954 186.424 238.822 186.913C239.975 187.564 238.303 191.845 237.171 191.701ZM273.339 182.601C272.687 184.823 272.011 184.25 269.967 184.68C267.916 185.112 266.498 186.835 264.692 187.759C265.319 186.447 265.708 184.849 266.759 183.785C267.001 183.539 268.49 183.054 267.642 182.484C266.9 181.987 265.834 183.602 265.516 184.042C263.952 186.208 262.858 188.853 261.955 191.345C261.511 192.569 261.155 193.816 260.945 195.101C260.757 196.246 260.96 197.445 260.769 198.561C260.461 200.357 257.994 200.366 256.51 200.83C255.166 201.249 253.829 201.704 252.434 201.93C251.226 202.126 249.971 201.769 248.799 202.004C247.531 202.259 246.961 203.004 245.519 202.835C244.343 202.698 243.243 202.164 242.052 202.11C240.937 202.061 239.824 202.442 238.716 202.132C237.597 201.818 237.651 201.697 237.906 200.609C238.065 200.903 238.224 201.196 238.383 201.489C238.829 201.144 239.138 200.089 239.411 199.594C239.835 198.827 240.18 198.562 240.023 197.607C239.791 196.196 238.506 195.193 238.214 193.851C237.91 192.451 238.956 191.307 239.575 190.138C240.42 188.538 240.409 187.352 239.7 185.697C240.235 185.837 240.769 185.977 241.304 186.116C240.571 184.544 238.087 185.181 236.841 185.647C236.215 185.881 235.223 186.801 234.549 186.778C233.624 186.746 233.141 185.542 232.743 184.879C231.592 182.961 230.278 181.067 228.916 179.287C228.541 178.797 228.051 178.482 228.18 177.924C228.29 177.451 229.364 176.779 229.712 176.487C231.018 175.395 232.681 174.79 233.908 173.64C235.762 171.903 237.9 170.658 239.795 168.954C241.77 167.18 243.805 165.551 245.863 163.874C247.948 162.176 249.754 160.175 251.823 158.459C252.359 159.42 253.398 162.861 254.586 163.128C255.971 163.438 255.93 161.817 255.861 160.842C255.763 159.452 254.982 158.101 254.895 156.775C254.802 155.356 256.182 154.721 257.224 153.901C258.833 152.633 262.395 149.745 260.48 147.368C258.831 145.321 253.469 149.246 251.991 150.426C250.734 151.43 249.764 152.337 248.35 153.128C247.355 153.684 245.687 155.822 244.508 155.625C243.106 155.39 242.558 153.876 240.842 153.926C239.166 153.974 237.742 155.168 236.703 156.367C234.353 159.077 233.545 162.703 231.404 165.528C230.348 166.921 228.978 168.071 227.833 169.389C226.576 170.835 226.308 172.501 225.068 173.917C221.519 169.241 217.653 164.813 213.91 160.291C212.041 158.032 210.211 155.747 208.382 153.457C207.697 152.599 206.924 151.794 206.296 150.892C205.437 149.657 205.591 148.666 205.254 147.289C205.104 146.679 204.404 145.948 204.591 145.364C204.844 144.581 206.615 143.965 207.254 143.645C209.863 142.335 212.229 140.698 214.662 139.098C219.167 136.135 223.724 133.356 228.515 130.826C228.432 131.916 227.715 133.046 228.197 134.14C228.421 133.511 228.777 130.707 229.626 130.587C229.464 130.61 229.597 134.182 229.729 134.692C230.121 136.214 231.258 137.255 232.886 137.244C235.986 137.224 238.765 133.889 240.486 131.68C241.65 130.184 242.769 128.444 243.18 126.572C243.549 124.891 243.143 123.722 244.91 122.868C248.535 121.117 252.189 119.69 256.067 118.761C255.893 120.414 255.409 122.448 256.927 123.637C258.603 124.949 260.797 123.78 262.375 122.912C263.938 122.052 266.349 119.691 268.185 120.377C269.991 121.051 271.248 123.292 272.259 124.779C273.15 126.09 274.12 127.036 273.088 128.497C271.931 130.135 271.179 131.734 270.252 133.513C269.896 134.197 269.556 134.643 269.808 135.343C269.89 135.571 270.818 136.925 271.07 137.119C272.679 138.357 274.851 136.002 275.999 135.108C276.404 138.957 276.495 142.79 276.658 146.652C276.778 149.48 277.885 152.265 275.538 154.332C273.192 156.399 271.234 158.521 269.804 161.32C269.04 162.815 268.355 164.349 267.529 165.813C266.977 166.791 265.812 168.226 266.525 169.377C267.277 168.671 267.501 167.598 268.127 166.803C268.503 168.454 268.88 170.286 270.646 170.986C272.678 171.791 274.698 170.398 276.498 169.622C275.852 174.037 274.594 178.327 273.339 182.601ZM271.262 187.676C269.868 190.624 268.608 194.178 266.033 196.349C265.467 196.825 263.065 198.686 262.15 198.374C261.374 198.109 261.801 196.558 261.937 195.894C262.623 192.52 263.81 190.398 266.576 188.246C267.72 187.355 269.19 186.216 270.666 185.996C272.255 185.76 271.798 186.543 271.262 187.676ZM310.598 257.647C306.982 252.784 301.872 249.005 297.042 245.352C294.855 243.697 292.444 242.456 290.234 240.801C287.735 238.93 285.198 237.125 282.399 235.714C277.092 233.04 271.304 231.176 266.296 228.014C263.854 226.471 261.182 224.981 258.886 223.25C257.878 222.489 256.987 221.516 256.075 220.645C255.229 219.836 253.411 218.66 253.074 217.476C254.483 217.248 255.284 215.895 256.542 215.757C256.956 215.712 259.552 216.391 259.197 215.146C260.139 215.122 260.249 215.108 261.038 214.905C261.365 214.82 261.752 214.952 262.083 214.836C262.588 214.66 262.932 214.15 263.443 213.955C263.806 213.816 265.154 213.971 265.358 213.798C265.916 213.327 265.323 213.368 264.99 212.78C266.074 212.752 266.819 213.294 267.906 212.718C268.237 212.542 268.517 212.138 268.838 211.929C269.407 211.557 269.612 212.133 270.002 211.361C270.366 212.426 270.356 212.132 271.235 211.819C272.11 211.506 272.742 211.281 273.739 211.203C276.121 211.017 278.511 211.303 280.881 211.135C281.748 211.074 282.489 210.879 283.351 210.991C284.11 211.09 283.881 211.612 284.512 210.909C284.658 210.746 284.185 210.298 284.412 210.064C284.512 209.96 284.838 210.033 284.962 209.98C286.07 209.501 286.075 210.17 286.272 211.041C286.922 210.89 287.585 210.754 288.15 210.377C287.864 210.125 287.387 209.847 287.663 209.387C288.6 209.738 289.213 209.576 288.744 210.594C289.687 210.902 289.864 210.5 290.711 210.412C291.212 210.36 291.911 210.668 292.329 210.272C292.784 209.84 292.065 209.371 292.903 208.999C293.074 209.086 293.201 209.216 293.285 209.39C293.737 209.525 293.656 209.701 293.041 209.918C294.687 210.762 294.301 209.819 294.992 208.82C295.152 208.59 295.867 207.876 296.193 208.221C296.687 208.744 295.678 208.911 295.894 209.431C296.269 210.334 297.577 209.177 297.979 208.72C298.283 208.375 298.407 207.713 298.734 207.455C299.189 207.096 299.843 207.65 300.413 207.551C303.015 207.1 305.472 203.64 303.512 201.324C302.985 200.702 302.539 200.826 301.911 200.433C301.291 200.045 300.943 199.373 300.445 198.818C299.308 197.552 297.916 196.604 296.327 195.998C292.64 194.591 288.668 193.565 284.797 192.81C283.004 192.46 281.095 191.926 279.259 191.93C278.178 191.932 276.549 192.763 275.538 192.365C273.573 191.59 276.458 187.625 276.935 186.344C278.333 182.581 279.389 178.568 280.081 174.618C280.216 173.845 280.164 172.843 280.446 172.107C280.769 171.26 280.838 171.38 281.53 171.311C282.78 171.186 284.147 171.834 285.448 171.61C286.89 171.362 288.449 171.477 289.905 171.036C290.575 170.833 291.195 170.613 291.636 170.054C291.775 169.879 291.62 169.726 291.708 169.604C291.735 169.565 292.233 169.034 292.249 169.004C292.244 168.729 292.268 168.456 292.321 168.186C292.826 168.6 292.577 169.469 293.428 169.49C293.58 168.563 293.581 168.376 294.196 167.855C294.149 167.895 294.659 167.466 294.594 167.512C294.625 167.347 294.686 167.193 294.777 167.05C295.065 166.913 295.368 166.84 295.688 166.832C296.353 166.156 296.077 165.795 296.077 164.885C296.613 165.161 297.149 165.437 297.686 165.712C297.815 163.016 299.475 161.54 300.578 159.356C301.047 158.425 301.526 157.697 301.638 156.575C301.703 155.927 301.534 155.355 301.805 154.745C302.051 154.191 302.602 153.892 302.832 153.289C303.284 152.102 302.946 150.586 302.971 149.353C303.006 147.643 303.178 145.938 303.235 144.229C303.346 140.874 303.005 137.426 302.497 134.109C302.254 132.523 301.848 130.984 301.529 129.414C301.267 128.124 300.639 126.914 300.415 125.714C300.322 125.215 300.466 124.768 300.314 124.216C300.113 123.491 299.779 122.778 299.529 122.066C298.948 120.403 298.373 118.742 297.718 117.105C296.451 113.931 294.967 110.853 293.557 107.741C292.2 104.748 291.077 101.662 289.32 98.8673C287.59 96.1146 285.727 93.4083 283.82 90.7734C281.834 88.0294 279.322 85.6716 277.396 82.9022C273.779 77.7025 268.734 73.4178 263.456 69.8797C252.565 62.5783 240.795 55.2884 227.735 52.785C225.766 52.408 223.773 52.1463 221.767 52.0976C220.522 52.067 218.46 52.6621 217.282 52.2454C215.962 51.7788 216.082 50.3126 215.752 49.1625C215.327 47.684 214.369 46.7154 213.28 45.6704C212.135 44.5701 211.095 43.2852 209.666 42.537C208.218 41.7794 206.51 41.4959 204.906 41.2667C203.474 41.0618 201.334 41.2533 200.025 40.636C198.833 40.0734 199.422 39.4878 200.538 39.9695C200.619 39.4826 200.685 39.1682 201.001 38.792C201.159 38.6028 201.908 38.3376 201.926 38.1612C201.947 37.9546 201.319 37.3663 201.229 37.0998C201.036 36.5261 201.146 35.7316 201.375 35.1932C202.5 36.1824 202.826 36.6205 204.083 35.6749C204.613 35.2757 204.776 35.0996 205.39 34.8982C205.557 34.8435 205.931 35.0124 206.076 34.9176C206.631 34.5561 206.121 34.6413 206.384 34.2139C206.318 34.3217 206.784 33.1859 206.762 33.4233C206.819 32.8183 207 33.0043 206.63 32.2609C205.907 30.8066 204.065 30.7472 205.004 29.0875C205.373 28.4345 205.698 28.4996 205.802 27.5528C205.858 27.0437 205.789 26.4601 205.786 25.9423C205.782 24.8833 205.984 24.1419 204.98 23.6027C204.016 23.0842 203.126 23.6531 202.735 22.3669C202.325 21.0173 202.738 19.2871 201.26 18.363C200.18 17.6878 198.62 18.265 197.426 17.9348C196.23 17.6041 195.13 16.3937 193.916 17.323C193.054 17.9835 192.596 19.6075 190.971 18.7293C190.237 18.3332 189.834 17.0035 189.371 16.2577C188.634 15.0691 188.043 14.6397 186.909 15.7974C186.21 16.5114 184.736 18.2496 184.646 19.238C184.547 20.3291 185.51 20.785 184.301 21.4305C183.099 22.0728 182.425 21.6017 181.449 22.9053C180.481 24.1986 181.23 24.9131 180.109 26.1505C178.708 27.6971 177.962 28.3648 177.981 30.4486C177.995 31.8779 176.718 33.1125 177.463 34.4684C178.298 35.9881 180.734 36.6201 182.211 37.2386C181.718 38.1398 181.042 38.7174 181.617 39.6452C182.139 40.4853 183.613 40.6597 184.526 40.5071C185.141 40.4048 185.163 40.4968 185.647 40.0694C185.964 39.7895 185.529 39.4402 186.181 39.2852C186.876 39.1195 187.985 40.4659 188.436 40.8025C187.428 42.0962 184.66 42.338 183.196 42.9938C182.303 43.3938 181.483 43.9853 180.574 44.343C179.75 44.6673 178.746 44.5919 177.999 45.0939C176.708 45.9606 176.171 48.1079 175.38 49.3702C174.484 50.7991 173.616 51.4628 171.897 51.7594C169.754 52.1293 168.027 52.2779 166.028 53.2013C163.587 54.3289 161.18 55.5195 158.782 56.7351C154.915 58.6956 151.322 60.7081 147.731 63.0794C143.974 65.5605 140.319 68.1503 136.694 70.7428C133.108 73.3068 130.098 76.4611 126.983 79.5619C124.465 82.0684 122.256 84.774 119.747 87.2797C116.786 90.2385 114.609 93.9729 111.863 97.1117C110.361 98.8289 108.924 100.517 107.982 102.54C107.218 104.18 105.889 105.789 105.003 107.509C103.869 109.709 102.797 111.873 101.525 114C101.003 114.872 100.383 115.621 99.8319 116.454C99.1261 117.521 99.1678 118.552 98.9779 119.782C98.7797 119.481 98.5818 119.181 98.3835 118.882C98.0242 119.658 97.5896 120.422 97.2784 121.216C97.0797 121.724 97.111 122.444 96.9115 122.887C96.6611 123.444 96.3563 123.37 96.0443 123.834C95.7106 124.33 95.6033 124.996 95.2516 125.528C93.7315 127.828 93.1467 130.746 92.3656 133.37C91.3178 136.89 91.4832 140.936 91.5401 144.566C91.6006 148.4 91.8124 152.234 92.3953 156.027C92.9232 159.462 94.0519 162.758 95.8192 165.77C97.3589 168.395 99.4822 169.924 102.202 171.269C103.451 171.886 104.61 171.695 105.921 171.794C107.357 171.902 108.336 172.288 109.856 171.948C110.585 171.785 110.93 171.26 111.509 171.085C111.867 170.977 112.06 171.154 112.404 171.113C112.897 171.054 113.921 170.815 114.454 170.873C116.116 171.052 115.837 173.536 116 174.804C116.252 176.757 116.436 178.732 116.775 180.673C117.489 184.756 119.029 188.57 119.939 192.582C115.72 193.091 112.102 193.87 108.148 195.449C104.181 197.033 100.171 197.571 95.9962 198.358C92.0908 199.095 88.3345 200.471 85.2085 202.965C83.7433 204.133 82.2212 205.501 83.2971 207.425C83.9853 208.655 85.2254 208.968 86.296 209.684C86.5123 209.413 85.8867 208.839 85.7721 208.68C86.6722 208.863 86.6445 209.278 87.3018 209.64C87.8762 209.956 88.3465 209.945 88.9753 210.168C90.5107 210.714 91.2649 212.075 92.7826 212.457C93.26 212.577 93.8845 212.864 94.3728 212.946C94.9592 213.044 95.3982 212.79 95.9926 212.898C96.3135 213.107 96.6603 213.256 97.0333 213.346C97.2776 213.234 97.5191 213.115 97.757 212.99C98.611 213.078 99.1386 213.609 99.8323 214.046C99.8788 213.496 99.8119 212.924 100.338 212.565C100.544 213.1 100.212 213.439 100.772 213.807C101.483 214.273 102.416 213.691 103.052 213.396C103.232 215.173 107.393 215.069 108.712 215.043C110.539 215.009 112.363 214.292 114.206 214.692C115.146 214.896 116.149 215.108 117.085 215.373C118.212 215.692 119.574 215.976 120.683 216.378C121.124 216.538 121.664 217.05 122.134 217.015C122.508 216.987 122.608 216.442 123.043 216.458C123.535 216.475 123.7 217.018 124.127 217.181C124.764 217.425 125.351 216.961 125.957 217.195C126.175 217.28 126.47 217.641 126.749 217.758C127.172 217.937 128.01 217.939 128.481 218.025C129.148 218.148 129.746 218.065 130.318 218.106C130.78 218.139 130.77 218.446 130.99 218.465C131.244 218.488 131.685 217.627 132.025 217.501C132.52 217.317 133.419 217.755 133.925 217.832C130.264 222.739 125.851 227.076 121.067 230.873C115.907 234.97 110.623 239.061 105.089 242.654C100.065 245.917 95.2015 248.739 91.3062 253.344C88.0216 257.228 82.7932 261.383 83.5991 267.011C84.4046 272.635 90.5791 274.924 95.5268 275.998C101.749 277.348 108.155 276.805 114.394 277.564C117.055 277.888 120.012 277.715 122.69 277.439C125.854 277.113 128.565 275.071 131.285 273.595C136.177 270.939 140.359 267.385 145.178 264.646C151.211 261.217 157.181 257.583 163.795 255.286C166.872 254.218 170.04 252.998 172.523 250.801C172.892 250.474 173.167 249.98 173.584 249.711C174.294 249.253 174.484 249.717 174.896 249.578C175.213 249.471 175.52 249.133 175.793 249.031C176.488 248.774 176.797 248.88 177.574 248.88C176.907 248.5 176.297 247.52 176.989 246.721C178.174 245.352 178.379 247.539 178.824 248.046C179.201 247.566 179.057 247.139 178.96 246.594C179.279 246.802 179.598 247.01 179.918 247.219C179.698 246.164 179.907 245.192 180.472 244.272C180.993 243.425 181.122 243.545 181.265 242.37C182.884 243.832 183.201 240.284 183.346 238.991C183.487 237.737 183.348 236.837 184.182 235.74C185.077 234.563 186.439 233.818 187.575 232.904C189.37 231.458 191.345 229.633 193.828 231.019C195.788 232.114 196.854 234.796 198.693 236.175C199.808 237.012 200.985 237.096 201.696 238.393C202.271 239.441 202.458 240.696 203.001 241.772C204.315 244.382 206.208 247.367 208.367 249.369C210.376 251.232 212.956 251.222 215.308 252.378C217.636 253.522 220.055 254.761 222.52 255.59C225.211 256.496 228.113 256.881 230.734 257.978C232.082 258.542 233.287 259.392 234.647 259.932C236.113 260.515 237.658 260.926 239.144 261.459C245.032 263.574 250.794 266.168 256.979 267.34C259.722 267.86 262.262 269.273 265.026 269.57C266.211 269.698 267.178 269.859 268.338 270.153C270.158 270.612 269.772 270.857 270.443 272.358C271.546 274.828 274.239 273.365 276.315 273.427C279.638 273.526 282.91 272.995 286.228 272.97C292.031 272.926 297.618 272.279 303.23 270.395C308.865 268.503 315.281 263.945 310.598 257.647Z" fill="black"/>
<path fill-rule="evenodd" clip-rule="evenodd" d="M243.527 64.6271C243.606 64.7053 243.792 64.7528 243.527 64.6271Z" fill="black"/>
<path fill-rule="evenodd" clip-rule="evenodd" d="M141.322 169.847C142.582 168.584 147.944 168.839 148.349 171.099C148.801 173.62 144.01 177.43 142.256 178.498C140 179.872 137.246 180.13 137.646 176.679C137.948 174.072 139.527 171.645 141.322 169.847ZM145.75 167.247C145.913 167.945 144.708 167.708 144.376 167.542C144.22 167.224 145.586 166.545 145.75 167.247ZM136.503 171.872C137.573 171.967 138.798 170.27 139.605 169.692C139.962 170.237 137.61 173.234 137.351 173.917C136.705 175.626 136.346 177.784 137.226 179.488C139.801 184.468 146.39 177.357 148.037 174.873C149.19 173.136 149.989 170.982 148.36 169.279C147.78 168.673 146.822 168.504 146.284 167.928C145.575 167.17 146.133 166.192 144.707 166.357C143.724 166.471 142.543 167.349 141.587 167.666C140.434 168.049 139.398 168.446 138.392 169.155C138.165 169.314 135.182 171.754 136.503 171.872Z" fill="black"/>
<path fill-rule="evenodd" clip-rule="evenodd" d="M212.089 173.543C211.417 176.965 207.989 180.474 204.382 180.61C200.79 180.746 199.627 177.024 200.261 174.057C200.802 171.527 203.013 167.131 206.167 167.616C208.647 167.996 212.665 170.61 212.089 173.543ZM209.801 167.825C207.524 166.082 204.377 165.275 201.738 166.658C200.872 167.111 197.417 169.111 198.469 170.465C199.886 169.379 201.11 167.871 202.952 167.51C202.642 168.922 200.873 170.193 200.25 171.568C199.521 173.174 199.122 175.013 199.242 176.779C199.454 179.921 201.582 182.363 204.877 181.931C207.893 181.535 210.53 179.249 211.969 176.678C213.89 173.246 212.808 170.126 209.801 167.825Z" fill="black"/>
<path fill-rule="evenodd" clip-rule="evenodd" d="M188.652 181.32C187.03 183.695 184.557 185.929 181.699 186.662C177.998 187.611 179.038 184.587 180.144 182.416C181.122 180.497 182.799 177.195 185.354 177.213C186.221 177.218 187.836 177.633 188.595 178.092C190.093 178.996 189.505 180.071 188.652 181.32ZM185.198 176.102C185.779 175.46 188.356 172.712 188.702 174.854C189.442 174.006 188.858 173.302 187.911 173.212C186.768 173.104 185.518 174.363 184.694 174.988C182.996 176.274 181.69 177.592 180.565 179.396C179.325 181.384 176.163 185.878 178.93 187.851C181.921 189.984 186.275 186.045 188.148 184.014C189.346 182.714 190.932 180.807 190.477 178.901C189.917 176.561 187.165 176.315 185.198 176.102Z" fill="black"/>
<path fill-rule="evenodd" clip-rule="evenodd" d="M172.435 137.832C170.761 139.72 167.361 142.472 164.56 142.148C162.004 141.853 163.002 139.016 163.906 137.643C165.265 135.58 167.085 133.643 169.714 133.53C170.849 133.482 172.32 133.504 173.2 134.355C174.4 135.516 173.319 136.834 172.435 137.832ZM172.257 132.584C170.296 131.914 169.526 131.659 167.62 132.724C166.09 133.579 164.733 134.788 163.683 136.161C162.111 138.216 160.527 142.838 164.562 143.416C168.988 144.05 179.517 135.067 172.257 132.584Z" fill="black"/>
<path fill-rule="evenodd" clip-rule="evenodd" d="M178.29 144.377C177.017 145.663 175.427 146.713 173.613 147.071C174.38 145.377 176.094 141.676 178.126 141.161C179.062 140.923 180.13 141.234 180.053 142.289C179.997 143.052 178.792 143.869 178.29 144.377ZM179.929 139.899C178.875 139.376 179.207 139.019 177.981 139.429C177.014 139.752 175.795 140.313 174.99 140.958C174.551 141.311 173.183 142.56 173.35 143.195C173.654 144.35 174.674 142.58 174.942 142.24C175.401 142.61 173.052 145.935 172.912 146.483C172.391 148.521 174.008 148.736 175.593 148.069C177.731 147.171 184.06 141.946 179.929 139.899Z" fill="black"/>
<path fill-rule="evenodd" clip-rule="evenodd" d="M211.268 194.734C211.426 193.383 211.65 191.954 212.904 191.196C214.033 190.512 215.203 190.611 215.37 192.013C215.526 193.316 214.236 195.629 213.192 196.34C211.739 197.329 211.459 196.095 211.268 194.734ZM213.135 197.808C216.119 196.081 218 188.162 212.5 190.382C209.374 191.643 210.524 199.319 213.135 197.808Z" fill="black"/>
<path fill-rule="evenodd" clip-rule="evenodd" d="M187.653 164.969C188.124 164.015 188.662 163.699 189.616 163.282C188.98 163.876 188.33 164.424 187.653 164.969ZM188.342 162.619C187.666 163.289 186.117 164.312 186.334 165.464C186.532 166.515 187.344 166.455 188.08 166.127C189.625 165.441 190.484 162.435 192.1 162.153C190.308 161.03 189.89 161.082 188.342 162.619Z" fill="black"/>
<path fill-rule="evenodd" clip-rule="evenodd" d="M188.579 102.92C188.665 106.121 188.741 109.322 188.812 112.523C188.837 113.648 188.566 115.252 188.907 116.33C189.058 116.804 190.421 118.862 190.905 118.995C192.597 119.461 191.992 115.265 192.004 114.232C192.045 110.746 191.993 107.256 191.979 103.77C191.971 101.974 192.484 86.9109 190.127 86.9844C189.721 86.9973 188.721 88.7196 188.571 89.0647C188.097 90.1491 188.271 91.7564 188.282 92.9121C188.314 96.2465 188.489 99.5856 188.579 102.92Z" fill="black"/>
<path fill-rule="evenodd" clip-rule="evenodd" d="M202.849 112.251C202.981 113.136 202.912 114.612 203.919 115.071C204.796 115.47 205.131 114.996 205.459 114.254C206.213 112.548 205.941 109.939 205.927 108.175C205.9 104.679 205.501 101.198 205.226 97.715C205.105 96.1868 205.357 94.6518 205.163 93.0527C205.079 92.351 204.994 89.5279 203.679 89.6594C202.49 89.7781 202.597 92.7369 202.532 93.4992C201.993 99.845 201.899 105.917 202.849 112.251Z" fill="black"/>
<path fill-rule="evenodd" clip-rule="evenodd" d="M258.982 185.124C258.478 187.672 250.254 196.547 248.183 191.584C246.955 188.639 249.618 185.433 251.694 183.728C252.98 182.673 254.585 181.638 256.337 181.957C257.824 182.229 259.302 183.505 258.982 185.124ZM254.735 180.552C254.154 180.688 249.299 184.06 249.255 184.015C248.833 183.597 251.895 179.083 252.211 178.688C254.807 175.434 256.53 177.898 258.153 180.455C257.808 178.928 256.856 176.71 255.267 176.064C253.26 175.249 251.694 177.262 250.729 178.709C249.364 180.754 248.612 182.975 247.853 185.283C247.492 186.383 247.08 187.381 246.468 188.374C245.863 189.353 244.806 190.433 244.962 191.672C245.821 191.199 246.278 190.274 246.819 189.513C247.423 189.754 247.215 191.659 247.338 192.144C247.646 193.362 248.488 194.315 249.789 194.525C252.215 194.915 254.834 192.695 256.456 191.188C258.165 189.599 260.005 187.421 259.99 184.976C259.975 182.422 257.434 179.92 254.735 180.552Z" fill="black"/>
<path fill-rule="evenodd" clip-rule="evenodd" d="M261.312 139.6C259.936 141.683 257.521 144.181 254.965 144.665C253.089 145.02 251.852 143.645 252.605 141.789C253.242 140.22 255.411 139.229 256.832 138.539C257.96 137.991 263.217 136.716 261.312 139.6ZM260.3 136.192C257.48 136.087 255.206 138.103 253.104 139.712C253.578 137.863 254.652 135.853 256.165 134.649C258.223 133.012 260.174 134.029 262.341 134.848C261.806 133.179 259.407 132.579 257.878 132.815C255.945 133.113 254.556 134.745 253.578 136.323C252.413 138.207 252.014 140.426 250.642 142.192C250.013 143.001 246.123 146.026 247.004 147.263C248.457 145.737 249.91 144.212 251.363 142.686C251.74 144.49 252.156 146.543 254.483 146.367C256.342 146.227 258.462 144.664 259.821 143.47C261.577 141.927 265.031 136.369 260.3 136.192Z" fill="black"/>
<path fill-rule="evenodd" clip-rule="evenodd" d="M220.804 153.982C219.61 154.525 216.981 155.263 216.313 153.631C215.385 151.365 218.37 147.389 219.791 145.879C220.665 144.95 221.258 144.469 222.476 145.07C223.449 145.551 224.879 146.915 225.252 147.964C226.053 150.216 222.672 153.132 220.804 153.982ZM223.544 143.096C224.517 143.313 224.636 144.535 223.42 144.066C222.509 143.714 222.297 142.818 223.544 143.096ZM224.765 144.817C224.402 143.721 225.141 142.002 223.353 141.923C222.339 141.879 220.482 142.898 219.598 143.312C218.371 143.886 217.217 144.762 216.576 145.997C215.983 147.14 216.407 147.441 217.311 146.492C217.421 146.567 215.266 152.066 215.247 152.617C215.163 155.135 216.965 156.793 219.496 156.347C221.823 155.936 223.919 154.055 225.199 152.156C225.847 151.195 226.379 150.094 226.427 148.917C226.502 147.111 225.285 146.385 224.765 144.817Z" fill="black"/>
<path fill-rule="evenodd" clip-rule="evenodd" d="M235.924 143.893C234.943 142.024 237.217 138.877 239.253 139.798C243.493 141.714 237.212 146.344 235.924 143.893ZM239.733 141.453C239.278 141.471 236.401 142.57 236.825 143.315C237.406 144.337 239.505 141.864 239.733 141.453Z" fill="black"/>
<path fill-rule="evenodd" clip-rule="evenodd" d="M100.658 137.997C100.544 137.201 98.7395 138.357 98.75 138.87C99.0484 138.279 100.895 139.656 100.658 137.997Z" fill="black"/>
<path fill-rule="evenodd" clip-rule="evenodd" d="M199.354 77.8263C201.651 77.6593 198.724 66.1955 197.05 67.2093C195.235 68.3081 197.246 77.9793 199.354 77.8263Z" fill="black"/>
<path fill-rule="evenodd" clip-rule="evenodd" d="M203.644 72.4733C205.797 72.7782 205.455 67.8898 204.297 67.015C202.16 65.4 201.031 72.103 203.644 72.4733Z" fill="black"/>
</svg>
