<svg width="429" height="320" viewBox="0 0 429 320" fill="none" xmlns="http://www.w3.org/2000/svg">
<path fill-rule="evenodd" clip-rule="evenodd" d="M222.124 159.168L222.189 159.175C223.125 159.355 224.677 162.019 225.313 162.776C227.361 165.218 229.411 167.66 231.46 170.102C232.28 171.079 233.462 172.105 234.046 173.236C234.496 174.106 234.65 175.306 234.918 176.239C238.25 187.823 241.509 199.483 243.936 211.293C244.458 213.835 244.954 216.395 245.245 218.975C245.388 220.251 245.764 222.125 245.206 223.358C244.576 224.747 242.55 225.324 241.234 225.755C238.673 226.593 235.992 227.092 233.339 227.54C226.947 228.619 220.476 229.246 214.016 229.753C212.042 229.908 210.011 229.905 208.05 230.169C207.113 230.295 207.394 230.045 207.099 230.67C206.688 231.54 206.96 233.356 206.911 234.304C206.796 236.536 206.682 238.767 206.567 240.998L205.627 259.256C205.309 265.427 204.991 271.597 204.673 277.768C204.553 280.105 204.433 282.443 204.312 284.782C204.248 286.031 204.44 287.645 204.103 288.855C203.848 289.77 204.267 289.5 203.139 289.554C200.526 289.68 197.819 289.365 195.206 289.272C192.242 289.167 189.278 289.061 186.313 288.956C185.467 288.926 184.521 289.164 184.179 288.561C183.764 287.826 184.08 285.805 184.051 284.984C183.969 282.697 183.887 280.409 183.804 278.122C183.579 271.843 183.353 265.564 183.127 259.284C182.819 250.721 182.511 242.158 182.203 233.594C178.906 234.254 175.61 234.913 172.313 235.573C167.443 236.548 162.572 237.523 157.701 238.497C155.467 238.945 152.814 239.965 150.507 239.636C148.216 239.309 147.268 238.335 147.14 236.172C147.002 233.854 147.056 231.517 147.087 229.196C147.138 225.4 147.248 221.605 147.392 217.811C153.9 217.228 160.408 216.645 166.916 216.062C170.382 215.751 173.847 215.441 177.312 215.13C178.099 215.06 180.038 215.211 180.389 214.621C180.934 213.704 180.327 210.691 180.311 209.654L180.155 199.853L179.586 163.793C181.145 163.843 182.703 163.89 184.261 163.933C191.04 164.123 197.852 164.399 204.633 164.192C208.034 164.088 211.256 163.176 214.466 162.099C216.173 161.527 217.863 160.903 219.539 160.248C220.067 160.042 221.62 159.066 222.189 159.175L222.124 159.168ZM212.998 192.723L209.534 209.57L221.385 208.789L212.998 192.723Z" fill="#84A8BC"/>
<path fill-rule="evenodd" clip-rule="evenodd" d="M311.984 56.0959C311.742 57.9697 311.914 60.0125 309.787 60.5065C307.819 60.9639 305.659 60.8356 303.653 60.9957C301.398 61.176 299.149 61.4222 296.899 61.644C294.061 61.9235 294.466 60.8391 293.846 58.4291C293.279 56.2285 292.374 54.0321 291.622 51.8857C291.272 50.8882 290.854 49.9705 290.378 49.0303C289.946 48.1792 290.151 47.0215 289.685 46.3062C288.097 43.8656 280.35 50.5396 279.63 49.2241C280.941 48.2091 283.21 47.0735 283.612 45.3366C284.085 43.2953 282.78 42.6858 281.142 43.4321C277.109 45.2695 272.455 46.7056 268.057 47.3751C269.48 46.4295 282.344 38.9766 278.027 36.7659C277.054 36.2676 275.754 37.2055 274.877 37.5603C273.484 38.1236 272.029 38.5012 270.575 38.8703C269.043 39.2592 267.508 39.6334 265.967 39.9869C264.887 40.2351 262.961 41.1163 261.908 40.8988C260.839 40.6778 262.732 40.018 263.042 39.8625C264.394 39.1852 265.724 38.4574 267.044 37.7204C269.385 36.4127 271.547 34.8979 273.328 32.876C274.671 31.3503 276.89 28.0187 275.955 25.9092C275.413 24.6864 274.225 23.5562 273.527 22.3977C272.712 21.0446 272.054 19.6024 271.346 18.1926C272.531 18.7106 273.86 18.8432 275.07 19.3081C276.279 19.7733 277.506 20.1498 278.764 20.4956C281.288 21.1893 283.804 21.3125 286.304 21.8751C289.135 22.5117 292.085 23.2236 294.96 23.5915C297.464 23.9114 299.716 24.593 301.861 25.9507C306.243 28.7244 309.282 32.7089 310.819 37.6363C311.72 40.5228 311.939 43.5345 312.045 46.5377C312.157 49.7041 312.392 52.9434 311.984 56.0959ZM287.395 56.3289C284.336 58.547 280.769 60.2804 277.486 62.1674C275.607 63.2468 273.688 64.2556 271.772 65.2675C270.412 65.9856 268.759 67.3069 267.263 67.6752C266.316 67.9082 266.386 67.926 265.787 67.0673C265.214 66.2473 264.714 65.3645 264.178 64.52C263.189 62.963 262.192 61.4118 261.194 59.8605C258.957 56.3832 256.725 52.9066 254.374 49.5033C252.017 46.0883 249.755 42.6106 247.471 39.1472C246.409 37.537 245.354 35.9206 244.228 34.3547C243.367 33.159 241.162 31.3352 242.209 29.9274C243.182 28.6197 245.398 27.5333 246.709 26.5435C248.311 25.335 249.922 24.1389 251.52 22.9242C254.954 20.313 258.298 17.5882 261.729 14.9735C264.641 20.0529 268.066 24.8147 271.521 29.537C268.397 31.5201 265.24 33.4052 261.948 35.103C259.516 36.3568 255.795 38.0511 254.259 40.4297C252.746 42.7719 254.232 45.4742 256.93 45.5172C258.543 45.5428 260.151 45.1179 261.732 44.8752C262.874 44.6999 264.958 43.8815 265.987 44.4584C264.137 45.6324 257.425 49.0539 261.043 52.0536C263.63 54.198 268.002 51.0688 270.795 51.7128C269.944 53.3381 269.059 55.9307 271.422 56.8147C273.389 57.5506 275.964 56.1792 277.734 55.4519C279.013 54.9265 280.284 54.3834 281.542 53.8099C282.542 53.3536 283.74 52.4293 284.809 52.2324C286.056 52.0024 288.595 55.4589 287.395 56.3289ZM230.519 176.12C232.269 175.803 233.168 175.083 233.719 177.196C234.213 179.09 234.703 180.914 235.339 182.772C232.605 183.007 230.193 184.305 228.199 186.132C226.779 187.434 223.955 190.54 224.655 192.719C226.356 198.015 234.946 186.134 235.967 184.865C237.217 186.681 237.676 189.059 238.297 191.137C238.74 192.615 240.38 195.449 238.211 195.808C235.167 196.313 229.454 197.441 229.815 201.73C230.242 206.792 236.717 206.763 240.349 206.991C242.398 207.119 242.407 208.751 242.699 210.577C242.829 211.394 243.237 212.498 242.539 213.096C241.92 213.627 240.023 213.642 239.218 213.814C236.868 214.315 234.52 214.827 232.171 215.328C229.504 215.897 228.094 215.1 225.601 214.373C224.678 214.104 223.75 214.218 223.683 213.19C223.641 212.559 224.262 211.584 224.465 210.96C225.269 208.492 225.955 205.952 226.186 203.36C226.522 199.594 226.102 193.948 221.44 193.213C219.221 192.863 218.795 192.749 217.794 190.679C216.711 188.44 214.991 186.367 215.407 183.788C215.707 181.919 215.2 178.383 216.399 176.833C216.954 176.116 218.035 175.689 218.772 175.163C219.712 174.492 220.618 173.774 221.494 173.023C222.231 172.392 223.129 171.158 223.965 170.702C224.985 170.144 225.016 170.524 225.749 171.395C226.831 172.681 228.552 176.477 230.519 176.12ZM235.466 184.487C234.86 185.704 233.458 186.836 232.565 187.853C231.666 188.875 230.817 189.956 229.814 190.883C228.712 191.903 224.795 194.366 225.658 191.05C226.33 188.471 228.842 186.382 231.054 185.094C231.482 184.845 236.493 182.426 235.466 184.487ZM239.751 196.766C240.139 198.493 240.348 200.272 240.68 202.011C240.85 202.9 241.79 205.048 241.406 205.902C240.757 207.352 234.914 205.636 233.703 205.137C230.819 203.95 229.496 200.903 232.155 198.733C233.163 197.91 239.363 195.04 239.751 196.766ZM243.582 217.501C243.907 219.149 244.859 220.677 243.285 221.923C241.978 222.957 239.837 223.663 238.227 224.032C236.032 224.533 235.326 223.31 234.164 221.737C232.915 220.045 231.585 218.41 230.205 216.822C234.538 215.857 238.871 214.892 243.205 213.928C243.202 215.128 243.349 216.324 243.582 217.501ZM233.199 225.15C230.939 225.034 228.508 225.71 226.216 225.888C223.354 226.11 220.5 226.434 217.635 226.625C218.369 224.296 219.687 222.219 220.718 220.019C221.753 217.811 222.479 217.572 224.859 217.402C227.064 217.244 228.619 216.49 230.247 218.35C231.94 220.285 233.474 222.388 235.02 224.44C234.494 224.79 233.865 225.184 233.199 225.15ZM217.045 225.625C216.488 226.029 214.768 224.881 214.189 224.658C213.062 224.225 212.812 224.086 212.224 222.992C211.718 222.052 210.914 220.984 210.756 219.91C210.547 218.496 211.176 216.633 211.406 215.228C212.016 216.691 214.019 216.861 215.372 217.1C216.395 217.282 219.428 216.993 220.2 217.718C221.052 218.519 219.483 220.752 219.074 221.594C218.586 222.598 217.983 224.946 217.045 225.625ZM215.953 226.786C215.282 226.894 213.351 227.558 213.389 226.339C213.433 224.946 216.09 226.448 215.953 226.786ZM212.55 226.713C212.428 227.885 209.891 227.788 209.833 226.757C209.734 225.014 212.745 224.84 212.55 226.713ZM209.65 195.096C209.001 196.933 205.051 197.59 203.534 198.156C202.149 198.672 198.01 201.057 196.581 200.192C201.417 196.887 206.372 193.648 210.469 189.428C210.637 190.47 210.381 191.341 210.072 192.328C209.793 193.218 209.937 194.282 209.65 195.096ZM208.447 201.795C207.751 206.295 207.068 210.854 206.127 215.309C204.333 214.764 202.853 213.658 200.968 213.273C199.248 212.922 197.47 212.913 195.736 213.17C192.04 213.717 188.745 215.535 185.52 217.307C185.222 214.221 184.605 210.919 184.678 207.822C184.739 205.25 189.165 204.488 191.172 203.425C192.387 202.783 193.485 201.878 194.869 201.654C196.293 201.423 197.667 201.43 199.074 200.999C202.399 199.978 205.529 198.36 208.787 197.155C209.053 198.699 208.683 200.273 208.447 201.795ZM205.34 220.839C205.192 221.862 205.378 223.687 204.595 224.467C203.856 225.201 202.28 225.225 201.307 225.424C198.342 226.031 195.38 226.643 192.42 227.269C191.095 227.549 189.77 227.817 188.44 228.067C187.806 228.186 186.215 228.791 185.681 228.289C185.174 227.812 185.551 226.289 185.579 225.65C185.633 224.374 185.706 223.093 185.625 221.817C185.471 219.368 185.608 218.43 187.9 217.163C190.335 215.816 192.849 214.895 195.59 214.396C198.365 213.89 201.008 214.167 203.649 215.226C204.384 215.521 205.487 215.884 205.829 216.672C206.294 217.745 205.496 219.752 205.34 220.839ZM202.002 260.316C200.915 260.994 198.55 260.878 197.302 261.016C195.286 261.237 193.258 261.111 191.255 260.802C189.748 260.569 187.498 260.247 186.343 259.194C184.701 257.699 186.595 257.63 187.852 257.735C191.504 258.041 195.202 257.828 198.851 257.565C199.561 257.514 201.47 256.894 202.155 257.184C203.031 257.555 202.763 259.842 202.002 260.316ZM199.931 284.484C193.127 283.827 189.182 278.223 186.714 272.494C185.39 269.419 185.867 266.191 185.737 262.939C185.713 262.345 185.338 260.87 185.952 260.427C186.529 260.01 188.863 261.299 189.494 261.453C192.731 262.242 196.31 262.317 199.554 261.551C200.959 261.219 201.746 260.602 202.192 261.987C202.552 263.102 201.962 265.157 201.897 266.326C201.786 268.348 202.105 284.694 199.931 284.484ZM186.338 284.491C186.312 283.509 185.814 273.589 186.297 273.56C187.733 276.64 189.207 279.395 191.821 281.66C193.156 282.819 194.657 283.862 196.326 284.483C196.954 284.717 200.508 284.894 200.682 285.668C200.987 287.022 198.561 286.476 197.841 286.366C197.263 286.277 196.744 286.032 196.177 285.93C195.098 285.735 194.078 285.997 192.994 286.019C191.347 286.052 189.73 285.88 188.082 286.022C186.576 286.151 186.378 285.979 186.338 284.491ZM187.343 239.998C193.168 238.125 198.036 241.672 201.11 246.313C202.863 248.96 203.255 250.811 202.948 253.945C202.838 255.067 203.041 255.827 202.004 256.284C200.978 256.737 198.645 256.401 197.534 256.453C194.34 256.601 191.158 256.799 187.963 256.61C185.888 256.488 185.595 256.138 185.631 254.135C185.674 251.723 185.472 249.323 185.335 246.907C185.186 244.294 184.284 240.981 187.343 239.998ZM185.436 236.524C185.44 234.753 185.333 232.935 185.442 231.166C185.55 229.412 186.301 229.498 187.966 229.199C191.571 228.551 195.172 227.825 198.728 226.947C200.135 226.599 201.725 225.932 203.19 225.927C204.728 225.921 204.646 226.707 204.544 228.062C204.316 231.061 203.763 234.017 203.595 237.001C203.414 240.221 203.319 243.483 203.333 246.707C203.338 247.795 203.604 248.601 202.672 247.582C201.737 246.562 201.28 244.937 200.446 243.79C198.738 241.443 196.2 239.554 193.382 238.759C191.825 238.319 190.186 238.243 188.598 238.561C188.116 238.658 185.703 239.803 185.396 239.577C185.188 239.424 185.436 236.596 185.436 236.524ZM206.746 297.935C209.057 299.58 211.615 300.91 214.205 302.064C215.663 302.713 221.432 304.08 221.616 305.542C221.714 306.321 220.758 307.195 220.132 307.288C219.338 307.405 218.029 306.889 217.22 306.791C214.278 306.436 211.341 306.433 208.47 305.619C202.739 303.992 196.797 303.534 191.006 302.116C189.628 301.778 188.247 301.462 186.862 301.156C185.546 300.866 184.957 300.916 184.91 299.518C184.808 296.449 185.693 293.305 185.7 290.198C190.385 290.73 195.086 290.723 199.784 291.161C201.797 291.348 201.75 291.728 202.632 293.477C203.548 295.292 205.105 296.766 206.746 297.935ZM183.904 198.237C183.844 197.101 183.798 195.962 183.695 194.829C183.625 194.068 182.926 191.941 183.32 191.348C183.789 190.645 184.26 191.074 185.098 191.054C186.203 191.028 187.128 190.587 188.038 190.009C189.763 188.915 191.046 187.474 192.165 185.793C193.15 184.314 192.967 182.292 192.955 180.521C192.923 175.94 193.259 171.472 192.978 166.871C192.849 164.758 194.663 166.054 196.128 166.328C198.524 166.775 201.128 166.465 203.563 166.471C203.472 167.035 198.493 168.433 197.688 168.965C195.629 170.327 194.428 172.507 194.616 174.991C194.994 179.99 200.529 180.825 204.573 180.835C201.218 183.786 197.922 186.599 195.285 190.239C193.341 192.923 189.916 198.215 193.095 201.184C190.285 202.772 187.5 204.537 184.322 205.301C184.179 202.947 184.027 200.593 183.904 198.237ZM182.628 106.996C183.772 107.727 184.253 106.694 185.124 106.159C186.35 105.405 186.756 105.479 186.911 103.795C187.199 100.672 185.878 97.8452 184.219 95.2894C183.466 94.1278 182.714 92.7445 181.65 91.8365C180.68 91.0087 179.699 91.2937 178.8 90.438C178.447 90.1015 178.523 89.6265 177.94 89.6401C177.556 89.649 176.622 90.8323 176.305 91.0936C175.303 91.9186 174.077 92.5467 172.764 91.8663C170.852 90.8761 171.466 87.282 172.951 86.1177C174.095 85.2214 175.446 85.3598 176.748 85.2152C177.724 85.107 177.927 85.1492 177.526 84.0381C177.244 83.2599 176.595 82.6528 176.275 81.8917C175.659 80.4304 175.793 78.6543 175.527 77.1078C175.288 75.7221 174.729 74.2232 174.75 72.8158C174.776 71.0238 175.365 70.5582 176.926 70.0557C178.438 69.5692 179.691 68.4964 180.979 67.5949C182.437 66.5745 184.034 65.9006 185.533 64.969C186.55 64.3362 187.206 63.0572 188.325 63.6546C189.654 64.3645 191.06 66.4198 192.19 67.4701C190.536 68.5142 190.152 68.9709 190.379 71.0149C190.589 72.8887 190.972 74.5586 192.413 75.864C192.966 76.3657 193.998 76.7674 194.427 77.3458C194.927 78.0197 194.602 77.4257 194.539 78.1864C194.505 78.5966 194.179 78.8649 194.25 79.339C194.567 81.4451 197 80.2021 198.002 79.4705C201.584 76.8565 194.896 74.7807 193.308 73.8285C192.211 73.1706 191.669 71.0708 193.407 71.6287C194.563 71.9997 197.174 75.1456 197.439 72.2781C200.306 73.934 202.075 77.4524 204.478 79.6771C206.211 81.2815 208.54 83.061 207.164 85.6234C205.411 88.8895 201.934 90.3721 198.761 91.7814C195.682 93.1481 196.321 97.0159 197.967 99.3832C198.918 100.752 200.165 101.554 201.664 102.219C203.196 102.898 203.514 103.696 203.849 105.273C204.22 107.021 203.826 107.726 202.303 108.63C200.817 109.512 199.263 110.367 197.676 111.057C194.244 112.551 190.685 112.645 187.035 113.154C185.756 113.332 184.529 113.704 183.831 112.442C183.046 111.023 182.989 108.579 182.628 106.996ZM182.076 100.204C181.217 99.7535 179.144 101.249 178.058 101.314C176.301 101.42 175.148 101.38 173.589 102.307C170.641 104.059 168.196 106.314 165.832 108.76C163.17 111.514 160.523 114.283 157.87 117.046C156.667 118.298 155.459 119.543 154.237 120.775C153.274 121.747 152.333 123.113 151.142 123.806C151.204 122.983 151.711 122.4 151.891 121.637C151.996 121.19 151.813 120.812 151.881 120.384C151.903 120.245 152.278 119.763 152.335 119.605C152.487 119.187 152.673 118.775 152.853 118.341C153.022 117.937 152.997 117.517 153.168 117.095C153.344 116.659 153.825 116.37 153.992 115.941C154.481 114.685 153.671 114.103 152.376 114.132C152.883 111.619 153.104 110.389 155.747 109.503C158.271 108.656 160.737 107.705 163.056 106.382C165.115 105.207 166.833 103.514 168.813 102.205C170.585 101.033 172.791 99.8043 172.773 97.4001C173.777 98.0778 174.719 98.6481 175.868 97.9735C176.838 97.4036 176.967 96.9449 178.088 96.8375C179.004 96.7503 179.571 96.727 180.388 97.1275C181.349 97.5982 181.481 97.9258 182.041 96.5394C182.677 97.0721 184.286 99.2909 184.232 100.169C184.203 100.653 184.129 100.871 183.526 100.999C182.671 101.179 182.704 100.533 182.076 100.204ZM178.071 231.518C177.653 232.155 175.891 232.038 175.211 232.029C173.136 232.003 172.411 230.271 171.501 228.598C170.066 225.961 167.922 220.481 170.276 217.713C172.134 215.528 175.752 218.281 177.02 219.931C178.114 221.357 177.789 223.495 177.891 225.206C177.976 226.648 178.897 230.261 178.071 231.518ZM172.404 232.474C171.575 233.298 168.883 233.124 167.785 233.301C165.823 233.617 163.873 233.996 161.971 234.572C160.554 235.001 159.154 236.155 158.78 234.191C158.467 232.54 158.623 230.56 158.653 228.894C158.685 227.096 158.874 225.321 159.032 223.531C159.138 222.321 158.872 220.094 159.865 219.165C160.721 218.365 162.803 218.287 163.915 218.022C165.74 217.587 167.647 217.015 169.544 217.21C168.437 220.198 168.343 223.332 169.53 226.309C169.868 227.159 172.916 231.964 172.404 232.474ZM158.456 220.57C157.994 225.065 157.528 229.588 157.974 234.105C158.001 234.374 158.324 235.608 158.183 235.801C158.038 236.001 156.886 236.105 156.625 236.166C155.586 236.411 154.549 236.671 153.504 236.889C151.469 237.312 151.204 236.033 150.804 234.158C149.949 230.14 151.607 225.784 152.612 221.925C153.101 220.046 153.463 219.829 155.321 219.673C156.614 219.565 158.653 218.66 158.456 220.57ZM150.6 237.339C149.822 238.042 149.045 234.724 148.977 234.385C148.705 233.042 148.856 231.68 148.86 230.316C148.867 228.186 148.703 226.065 148.7 223.945C148.698 222.798 147.834 220.453 149.198 219.846C149.599 219.668 151.19 219.742 151.551 219.977C152.3 220.464 152.005 220.779 151.783 221.626C151.285 223.528 150.855 225.438 150.422 227.356C149.997 229.235 149.578 231.044 149.78 232.985C149.847 233.627 151.095 236.89 150.6 237.339ZM175.395 216.396C177.29 215.865 177.391 217.309 177.388 218.691C177.099 218.471 174.406 216.673 175.395 216.396ZM150.043 114.938C149.579 115.7 146.637 115.907 145.797 116.108C144.143 116.502 142.489 116.893 140.839 117.303C137.75 118.072 134.736 118.938 131.568 119.341C133.307 116.571 133.849 114.179 133.525 110.723C133.117 106.358 132.598 102.039 131.588 97.7669C130.592 93.5544 129.439 89.3702 128.329 85.1861C127.783 83.1304 127.193 81.114 126.468 79.1138C125.886 77.5106 124.977 75.4926 125.965 73.8491C128.47 75.667 130.48 77.6258 131.909 80.3874C133.44 83.348 134.776 86.3872 136.553 89.2194C137.365 90.5144 138.314 91.6953 139.183 92.9488C139.7 93.6947 140.077 94.7706 140.735 95.3999C141.494 96.1249 142.304 96.4669 142.738 95.2433C143.203 93.9301 141.718 91.3317 141.28 90.0984C140.221 87.1211 139.172 84.1501 138.355 81.0961C137.695 78.6276 136.603 75.643 136.99 73.0384C137.372 70.4597 139.131 72.3052 140.021 73.504C141.857 75.9757 142.955 78.8567 144.161 81.6587C145.269 84.2331 146.562 86.6873 147.788 89.202C148.214 90.077 148.777 92.3374 149.894 92.5975C151.518 92.9763 151.381 90.7012 151.225 89.7781C150.196 83.6589 147.509 77.7994 146.951 71.574C146.925 71.2766 146.536 68.9636 146.848 68.7705C147.454 68.3959 148.271 70.7424 148.532 71.3173C149.891 74.3077 150.837 77.4602 151.705 80.6193C152.444 83.3057 153.112 86.0127 153.941 88.6735C154.396 90.1363 154.918 91.5748 155.433 93.0174C155.898 94.3244 156.371 96.558 157.585 97.4191C159.308 98.6408 165.472 95.736 166.096 98.3329C166.541 100.179 160.825 101.665 159.608 102.226C158.005 102.964 156.433 103.772 154.83 104.51C153.616 105.069 151.872 105.298 150.994 106.35C150.064 107.463 149.915 109.027 149.887 110.409C149.865 111.455 150.594 114.036 150.043 114.938ZM146.147 135.094C146.066 135.674 145.602 136.442 145.394 136.994C144.969 138.119 144.608 139.463 144.017 140.514C143.509 141.419 142.76 142.228 142.269 143.146C141.803 144.018 141.741 145.023 141.197 145.896C140.575 146.893 139.547 147.61 138.929 148.601C138.624 149.09 138.309 149.648 137.879 150.169C136.355 152.013 134.842 153.753 133.616 155.729C133.302 156.235 131.771 158.443 131.162 158.562C129.888 158.811 131.371 157.01 131.62 156.638C133.425 153.944 135.028 151.108 136.77 148.372C138.457 145.723 140.184 143.095 141.808 140.406C143.132 138.214 144.048 135.067 146.201 133.523C146.209 134.048 146.192 134.572 146.147 135.094ZM204.998 110.336C206.047 114.623 207.301 118.777 208.483 123.025C209.579 126.967 211.039 131.185 211.493 135.249C211.944 139.274 212.978 143.347 214.37 147.168C215.013 148.936 215.675 150.71 216.373 152.458C216.757 153.418 217.186 154.356 217.621 155.294C217.959 156.022 218.853 157.202 218.887 157.973C218.914 158.591 219.13 158.344 218.517 158.809C217.882 159.29 216.781 159.115 216.042 159.2C214.113 159.422 212.231 160.144 210.351 160.611C206.723 161.513 202.4 162.229 198.683 161.601C197.12 161.337 195.496 161.108 193.95 160.765C192.047 160.341 191.656 159.558 191.266 157.699C190.412 153.634 189.677 149.579 188.972 145.487C188.134 140.619 187.226 135.757 186.579 130.859C185.926 125.904 185.457 120.944 184.433 116.043C188.563 116.73 192.452 117.506 196.595 116.38C200.263 115.384 202.911 113.435 204.998 110.336ZM221.166 163.406C222.09 165.298 219.864 167 218.786 168.458C217.363 170.379 216.035 172.387 214.381 174.125C213.884 172.15 213.449 169.928 212.125 168.305C210.433 166.234 208.459 167.08 206.387 166.101C208.56 165.049 211.335 165.45 213.64 164.513C215.914 163.588 218.209 162.862 220.325 161.661C220.606 162.243 220.884 162.825 221.166 163.406ZM213.108 207.565C211.719 207.642 212.648 204.729 212.738 204.005C212.986 202.015 213.237 200.026 213.454 198.033C214.6 201.038 215.746 204.043 216.891 207.048C215.632 207.226 214.381 207.495 213.108 207.565ZM210.849 221.971C211.038 222.389 211.922 223.785 211.224 224.043C210.268 224.395 210.153 222.083 210.849 221.971ZM209.192 189.597C204.768 193.11 200.374 196.632 195.588 199.656C194.539 200.319 193.483 200.596 192.787 199.282C192.241 198.249 192.818 197.085 193.169 196.074C194.062 193.495 195.619 191.253 197.344 189.155C200.79 184.963 204.892 181.384 210.125 179.731C210.981 179.461 212.303 178.645 212.603 179.772C212.779 180.434 212.032 182.089 211.88 182.711C211.255 185.279 211.392 187.851 209.192 189.597ZM221.927 215.217C222.024 218.2 213.825 215.794 212.804 215.261C213.876 214.903 221.883 213.876 221.927 215.217ZM224.972 215.236C225.459 215.365 227.327 215.529 226.629 216.164C226.004 216.732 223.176 216.504 222.426 216.574C222.93 214.928 223.312 214.796 224.972 215.236ZM223.453 211.24C223.269 211.904 223.195 212.916 222.597 213.371C221.852 213.938 220.268 213.593 219.425 213.598C217.992 213.605 216.562 213.678 215.136 213.82C214.591 213.874 212.382 214.536 211.87 214.084C211.495 213.752 211.635 212.196 211.908 211.846C212.47 211.127 213.763 211.376 214.573 211.347C217.537 211.242 220.486 211.233 223.453 211.24ZM221.549 200.214C221.131 199.596 221.056 199.602 220.877 198.668C220.687 197.668 220.201 196.813 219.916 195.846C219.288 193.72 221.294 193.909 222.766 194.689C226.583 196.711 225.661 203.779 224.717 207.087C223.345 206.084 222.838 205.629 222.366 204.01C222.187 203.394 221.986 202.79 221.799 202.178C221.662 201.728 221.757 200.522 221.549 200.214ZM221.88 165.817C222.945 165.689 223.92 168.978 223.616 169.69C222.993 171.145 220.612 172.446 219.399 173.375C218.592 173.994 217.79 174.703 216.927 175.242C216.126 175.743 215.665 175.462 214.92 175.703C213.842 176.05 213.58 177.184 212.477 177.672C210.924 178.358 209.043 178.55 207.421 179.169C205.454 179.921 203.651 179.942 201.588 179.586C198.621 179.073 195.144 177.609 195.411 174.024C195.882 167.698 208.514 164.457 211.958 169.821C212.855 171.217 212.841 172.844 213.423 174.344C214.054 175.967 214.665 175.329 215.613 174.134C216.854 172.57 218.007 170.922 219.198 169.321C219.584 168.803 221.11 165.91 221.88 165.817ZM144.47 227.408C144.409 228.483 144.474 229.574 144.098 230.601C143.719 231.636 142.95 232.473 142.508 233.479C141.611 235.518 141.617 237.985 141.653 240.17C141.737 245.253 142.947 250.19 143.587 255.213C141.456 255.208 139.254 255.232 137.188 254.626C135.344 254.085 135.049 252.744 134.528 251.054C133.063 246.309 131.481 241.584 131.008 236.614C130.783 234.246 130.688 231.858 130.581 229.483C130.487 227.398 130.957 226.489 132.849 225.457C136.961 223.214 141.223 221.346 145.293 218.997C144.877 221.785 144.628 224.594 144.47 227.408ZM320.006 60.8581C319.005 60.6755 317.994 60.5611 316.984 60.4413C316.457 60.3785 314.814 60.4657 314.42 60.1242C313.95 59.7175 314.763 56.6425 314.805 55.9827C315.059 52.0145 314.763 47.9237 314.397 43.9707C313.735 36.8143 311.472 30.1845 306.251 25.0314C303.653 22.4664 300.731 20.4313 297.182 19.4492C295.114 18.877 292.984 18.5718 290.911 18.017C289.24 17.5688 287.68 17.0559 285.943 16.8783C282.48 16.5239 279.314 15.2224 275.934 14.4695C273.447 13.9154 269.447 12.6015 267.835 15.3942C266.566 13.9139 265.289 12.8023 263.689 11.6981C262.156 10.6405 261.905 9.58395 260.028 10.8052C256.38 13.1784 252.964 16.0734 249.557 18.7734C246.375 21.2951 243.297 23.9358 239.962 26.2547C236.561 28.6201 237.206 32.634 238.805 35.9617C241.814 42.2252 246.456 47.5798 250.518 52.9488C253.063 56.3122 255.616 59.6799 258.151 63.0498C260.574 66.2709 262.67 69.9987 265.501 72.8926C267.286 74.7168 269.417 72.3312 271.028 71.2289C273.028 69.8599 274.993 68.4401 276.995 67.075C281.164 64.2316 285.625 61.5684 290.027 59.0933C290.347 59.9958 290.667 60.8984 290.987 61.801C290.02 61.8731 288.714 61.6583 288.223 62.692C287.52 64.1684 289.244 64.3622 289.546 65.2086C289.816 65.9646 288.709 67.9613 288.382 68.6425C287.645 70.1775 286.617 71.5007 285.484 72.7643C281.001 77.7646 275.329 81.3412 269.574 84.7503C263.415 88.3979 256.814 90.6249 250.071 92.9755C246.643 94.1705 243.084 94.7257 239.546 95.491C236.137 96.2284 232.731 97.1969 229.247 97.4753C222.12 98.0441 214.557 98.4705 207.516 96.9418C206.745 96.7747 205.929 96.4122 205.145 96.3432C204.517 96.2877 204.051 96.5498 203.458 96.5836C202.183 96.6561 201.453 95.5228 200.441 96.5758C199.935 97.1023 199.926 97.9867 199.22 97.0038C198.322 95.7535 200.617 95.5116 201.467 95.1552C204.331 93.9557 206.632 91.541 208.451 89.1C210.269 86.6609 210.531 84.0559 209.424 81.2C208.317 78.3453 205.8 76.4103 203.911 74.0922C202.997 72.9698 202.156 71.7822 201.153 70.7342C200.617 70.1744 199.754 69.6386 199.72 69.0741C199.681 68.418 200.076 68.092 199.84 67.2945C199.779 67.087 199.517 66.9692 199.461 66.7412C199.373 66.3779 199.509 66.0662 199.463 65.7122C199.357 64.9004 199.037 64.3905 198.584 63.7252C198.302 63.3096 197.889 62.4776 197.5 62.1662C196.82 61.6203 195.891 61.8429 195.199 61.2896C194.104 60.4146 193.719 58.5706 192.75 57.5083C191.386 56.0133 191.095 57.5238 189.65 57.0473C188.415 56.6394 188.429 54.7905 187.431 54.1651C186.024 53.2842 184.84 54.9048 183.591 55.2658C181.948 55.7407 182.579 53.8972 181.115 53.7293C179.792 53.5773 177.96 56.2455 177.301 57.1931C176.629 56.4142 175.894 55.0871 174.685 55.5624C173.416 56.0618 173.19 58.3849 172.263 59.2138C171.939 59.5019 172.008 59.7148 171.61 59.8473C171.096 60.0183 170.412 59.277 169.748 59.5031C168.409 59.959 168.572 61.7367 168.569 62.8881C166.989 62.6586 165.887 62.5415 165.358 64.2354C164.84 65.8933 164.644 65.1617 162.978 65.7002C161.541 66.1643 161.34 67.5209 161.103 68.8476C160.957 69.6727 161.092 70.0096 161.316 70.7617C161.597 71.7093 161.597 71.6973 161.138 72.6018C160.338 74.1798 160.29 75.9183 160.163 77.6548C160.027 79.5081 159.701 81.195 160.23 83.0048C160.558 84.1249 160.583 85.649 161.686 86.2763C162.123 86.5248 162.867 86.3888 163.239 86.6353C163.95 87.106 163.733 87.8225 164.207 88.5099C164.561 89.0244 165.133 89.074 165.531 89.4912C165.963 89.9452 165.988 90.4985 166.234 91.0525C166.963 92.6933 167.648 93.4869 165.274 93.5808C163.809 93.6385 162.247 94.0755 160.788 93.9413C159.067 93.7835 158.639 92.8267 158.091 91.3697C155.33 84.0272 153.846 76.0687 150.209 69.0865C149.411 67.5535 146.133 61.2904 144.748 65.8537C143.58 69.7025 145.113 74.3996 145.7 78.2306C143.856 76.5778 143.175 73.6009 141.774 71.5829C140.74 70.0922 137.502 66.431 135.604 68.5289C134.108 70.1825 134.482 73.6886 134.758 75.6655C135.195 78.7928 136.199 81.8068 136.917 84.874C136.013 83.6984 135.568 82.2628 134.941 80.9391C134.154 79.2793 133.173 77.7041 132.055 76.2455C131.078 74.9707 129.985 73.7859 128.801 72.6991C127.895 71.8679 126.274 70.0488 124.988 69.9503C121.679 69.6979 122.719 75.7349 123.224 77.461C124.268 81.0384 125.401 84.5169 126.212 88.1664C127.797 95.2964 129.717 102.262 130.885 109.482C131.144 111.084 131.455 112.361 130.818 113.9C130.257 115.256 129.675 116.877 128.64 117.92C126.297 120.281 124.351 122.802 122.6 125.646C120.724 128.693 118.792 131.775 117.261 135.009C116.557 136.497 115.981 138.106 115.172 139.538C114.441 140.83 113.562 141.851 113.043 143.281C110.561 150.115 108.724 156.83 107.882 164.066C107.192 170.008 107.835 177.911 115.048 179.301C118.361 179.939 121.336 178.478 124.324 177.272C127.414 176.025 129.649 173.997 132.169 171.842C135.301 169.165 138.553 166.652 141.718 164.019C144.885 161.385 147.81 158.463 150.96 155.801C154.07 153.17 156.885 150.376 159.575 147.322C162.244 144.291 164.412 140.934 166.995 137.861C166.986 141.84 166.392 145.782 166.225 149.754C166.073 153.397 166.069 157.036 166.217 160.677C166.365 164.315 165.398 167.779 165.391 171.409C165.382 174.951 165.241 178.472 165.163 182.01C165.128 183.598 164.816 185.378 165.412 186.909C165.857 188.052 167.256 188.41 168.45 188.718C170.295 189.194 175.846 188.277 176.67 190.237C177.12 191.307 176.667 193.255 176.702 194.437C176.76 196.385 176.832 198.332 176.899 200.279C176.969 202.291 177.036 204.302 177.11 206.313C177.175 208.085 177.522 210.059 177.307 211.814C177.123 213.317 176.242 213.121 174.845 213.198C172.736 213.314 170.627 213.407 168.517 213.498C165.423 213.633 162.193 213.572 159.226 213.935C157.98 214.087 156.619 214.023 155.305 214.271C153.656 214.583 152.133 214.662 150.462 214.745C149.114 214.811 147.381 214.714 146.322 215.704C145.955 216.048 145.873 216.458 145.612 216.841C145.124 217.558 145.396 217.369 144.595 217.531C141.469 218.16 138.5 218.871 135.443 219.931C133.913 220.461 132.493 221.173 130.955 221.672C129.608 222.109 128.62 222.648 127.954 223.963C126.764 226.313 127.066 229.712 127.152 232.244C127.287 236.195 128.17 239.955 129.122 243.776C130.111 247.75 130.888 251.831 132.813 255.483C133.446 256.683 134.129 258.213 135.422 258.839C137.091 259.646 139.657 259.157 141.478 259.16C142.7 259.162 145.974 259.579 146.888 258.56C147.773 257.573 146.882 254.789 146.758 253.564C146.32 249.272 145.532 244.939 145.542 240.618C146.539 242.083 148.268 244.612 149.998 242.367C150.424 241.814 150.258 241.558 151.014 241.237C151.432 241.06 152.314 240.952 152.769 240.982C153.389 241.024 153.618 241.272 154.187 241.15C154.691 241.043 155.257 240.594 155.835 240.458C162.996 238.765 170.116 236.941 177.308 235.432C179.21 235.033 178.94 236.485 179.065 238.12C179.204 239.929 178.939 241.755 179.191 243.543C179.411 245.099 179.582 246.615 179.272 248.181C178.908 250.026 179.143 251.567 179.506 253.395C180.905 260.445 180.655 268.091 180.97 275.255C181.134 278.987 180.782 282.797 181.135 286.509C181.268 287.911 182.055 288.685 182.374 289.96C182.74 291.425 181.741 293.289 181.438 294.708C180.827 297.555 179.755 301.631 181.716 304.108C182.775 305.447 184.164 305.641 185.731 306.093C187.608 306.635 189.457 307.266 191.342 307.779C198.23 309.654 205.672 310.021 212.731 311.054C214.46 311.307 216.063 311.283 217.803 311.163C218.875 311.089 221.516 311.44 222.408 310.802C222.885 310.46 222.643 310.033 222.886 309.615C223.231 309.022 223.649 308.781 224.236 308.412C225.208 307.801 226.333 307.443 226.497 306.182C226.898 303.091 223.015 301.454 220.939 300.118C218.286 298.41 215.081 297.75 212.265 296.356C210.711 295.587 209.212 294.715 207.716 293.843C207.066 293.464 205.751 293.036 205.298 292.44C204.837 291.832 205.289 290.964 205.48 290.095C206.269 286.506 206.002 282.835 206.41 279.207C206.819 275.573 206.707 271.917 206.842 268.265C206.981 264.504 207.293 260.752 207.533 256.996C207.753 253.527 207.976 250.003 208.013 246.53C208.048 243.311 208.489 240.152 208.594 236.911C208.629 235.811 208.431 233.816 209.165 232.884C209.809 232.067 211.941 232.169 212.936 232.026C215.617 231.639 218.168 231.3 220.819 231.066C227.126 230.511 234.144 230.102 240.108 227.916C242.568 227.015 245.84 225.783 246.656 222.974C247.595 219.745 246.37 215.777 246.329 212.475C246.286 208.951 245.259 205.512 244.488 202.096C243.658 198.42 243.136 194.68 242.24 191.017C241.417 187.656 240.083 184.68 238.821 181.489C238.31 180.195 235.395 175.735 236.299 174.635C236.786 174.043 238.54 173.893 239.252 173.622C240.786 173.038 242.322 172.375 243.737 171.543C245.625 170.433 249.76 168.597 249.951 166.131C250.132 163.774 247.803 161.391 246.619 159.541C244.712 156.558 242.306 153.95 240.49 150.908C236.819 144.76 233.899 138.027 231.222 131.402C229.822 127.936 229.365 124.672 229.135 120.973C233.2 120.982 237.339 121.48 241.379 120.915C245.776 120.299 250.178 119.263 254.537 118.408C262.473 116.853 270.094 115.096 277.446 111.593C284.331 108.312 291.317 104.722 297.018 99.5143C299.965 96.8216 302.972 94.0774 305.518 90.9982C308.133 87.8353 310.1 84.2416 312.117 80.6906C314.344 76.7712 316.116 72.6522 317.517 68.3649C317.799 67.5031 317.801 66.4054 318.161 65.5913C318.568 64.672 319.309 64.648 320.082 64.1637C321.169 63.4825 321.893 61.2028 320.006 60.8581Z" fill="black"/>
<path fill-rule="evenodd" clip-rule="evenodd" d="M225.347 16.9832C226.276 17.7773 230.282 20.5746 231.576 19.8944C233.172 19.0547 230.645 16.5254 229.964 15.9018C229.098 15.1085 226.004 12.7084 224.819 12.9312C222.451 13.3768 224.51 16.2684 225.347 16.9832Z" fill="black"/>
<path fill-rule="evenodd" clip-rule="evenodd" d="M227.325 45.6925C227.85 44.6646 229.247 44.2867 229.893 43.292C230.67 42.0962 231.027 41.0498 230.741 39.5833C228.752 40.2492 226.489 42.2645 225.158 43.8405C224.046 45.1576 222.466 47.9097 225.369 47.9167C225.343 47.5249 225.318 47.1327 225.292 46.7413C226.163 46.8671 226.93 46.4672 227.325 45.6925Z" fill="black"/>
<path fill-rule="evenodd" clip-rule="evenodd" d="M217.851 28.5907C219.133 28.9572 220.191 28.9053 221.501 28.934C222.452 28.9551 223.751 29.4747 224.521 28.889C223.837 28.4953 224.701 28.4735 224.532 28.0895C224.39 27.7695 224.12 27.8743 223.901 27.6152C223.118 26.692 222.438 26.7032 221.197 26.5113C220.235 26.3617 218.821 26.017 217.897 26.4924C216.925 26.9928 216.548 28.2184 217.851 28.5907Z" fill="black"/>
<path fill-rule="evenodd" clip-rule="evenodd" d="M236.102 56.9081C236.931 56.2164 237.835 54.2136 238.003 53.1804C238.068 52.7756 237.775 52.4654 237.81 52.1674C237.877 51.5997 239.051 50.502 237.821 50.0361C236.746 49.6282 235.736 52.7966 235.463 53.4879C235.182 54.1949 234.419 55.5723 234.653 56.2564C234.848 56.8238 235.542 57.3747 236.102 56.9081Z" fill="black"/>
<path fill-rule="evenodd" clip-rule="evenodd" d="M246.022 14.026C246.772 13.3335 247.247 12.548 247.169 11.5956C247.108 10.8454 246.543 8.25892 245.907 8.33499C243.796 8.58839 244.745 15.2054 246.022 14.026Z" fill="black"/>
<path fill-rule="evenodd" clip-rule="evenodd" d="M201.456 129.665C201.282 129.033 200.651 125.166 199.559 125.43C198.729 125.63 199.591 129.033 199.63 129.48C199.711 130.417 197.9 130.386 197.059 130.26C195.725 130.059 195.832 129.282 195.632 128.075C195.557 127.619 195.268 125.559 194.312 126.314C193.666 126.824 194.128 129.364 194.182 129.944C194.368 131.951 194.587 135.38 195.787 137.203C196.266 137.93 196.696 138.289 197.199 137.357C197.707 136.413 196.556 133.537 196.355 132.572C197.304 132.664 200.039 132.357 200.611 133.339C201.133 134.234 200.297 136.793 201.973 137.001C202.968 137.124 202.788 135.978 202.692 135.097C202.491 133.249 201.946 131.451 201.456 129.665Z" fill="black"/>
<path fill-rule="evenodd" clip-rule="evenodd" d="M204.003 128.771C202.902 129.265 204.284 136.477 205.895 136.244C207.775 135.973 205.052 128.299 204.003 128.771Z" fill="black"/>
<path fill-rule="evenodd" clip-rule="evenodd" d="M202.776 126.383C202.64 128.007 204.762 128.612 204.862 126.847C204.939 125.486 202.919 124.676 202.776 126.383Z" fill="black"/>
<path fill-rule="evenodd" clip-rule="evenodd" d="M191.13 83.3316C192.099 86.9216 200.915 88.4486 199.727 83.6072C199.132 81.1829 196.648 83.3365 194.913 83.0545C193.791 82.8722 190.448 80.8001 191.13 83.3316Z" fill="black"/>
<path fill-rule="evenodd" clip-rule="evenodd" d="M188.916 76.928C189.33 75.0069 185.105 72.8867 183.572 73.4156C181.329 74.1895 181.339 79.1373 183.05 80.4528C183.275 80.626 183.965 81.0388 184.303 80.7097C184.837 80.1893 184.254 80.3313 184.129 79.8117C183.932 78.9853 183.286 77.9245 183.929 76.9844C185.146 75.2083 188.322 79.6805 188.916 76.928Z" fill="black"/>
<path fill-rule="evenodd" clip-rule="evenodd" d="M176.033 86.2523C174.509 86.1671 173.26 88.5186 175.502 88.3216C175.931 88.2839 176.853 88.1765 177.102 87.728C177.514 86.9849 176.703 86.2896 176.033 86.2523Z" fill="black"/>
<path fill-rule="evenodd" clip-rule="evenodd" d="M249.935 30.1927C249.413 29.4426 248.32 28.2354 247.38 28.9878C246.546 29.655 246.691 31.3018 247.011 32.12C247.872 34.323 249.905 36.2856 252.205 35.0164C251.406 33.4241 250.956 31.6611 249.935 30.1927Z" fill="black"/>
</svg>
